<?xml version="1.0" encoding="UTF-8" standalone="no"?>
<!-- Generator: Adobe Illustrator 16.0.0, SVG Export Plug-In . SVG Version: 6.00 Build 0)  -->

<svg
   xmlns:dc="http://purl.org/dc/elements/1.1/"
   xmlns:cc="http://creativecommons.org/ns#"
   xmlns:rdf="http://www.w3.org/1999/02/22-rdf-syntax-ns#"
   xmlns:svg="http://www.w3.org/2000/svg"
   xmlns="http://www.w3.org/2000/svg"
   xmlns:sodipodi="http://sodipodi.sourceforge.net/DTD/sodipodi-0.dtd"
   xmlns:inkscape="http://www.inkscape.org/namespaces/inkscape"
   version="1.1"
   id="Layer_1"
   x="0px"
   y="0px"
   width="664px"
   height="664px"
   viewBox="0 0 864 864"
   enable-background="new 0 0 864 864"
   xml:space="preserve"
   preserveAspectRatio="xMidYMid meet"
   sodipodi:docname="yoda.svg"
   inkscape:version="0.92.2 5c3e80d, 2017-08-06"><metadata
     id="metadata3873"><rdf:RDF><cc:Work
         rdf:about=""><dc:format>image/svg+xml</dc:format><dc:type
           rdf:resource="http://purl.org/dc/dcmitype/StillImage" /></cc:Work></rdf:RDF></metadata><defs
     id="defs3871" /><sodipodi:namedview
     pagecolor="#ffffff"
     bordercolor="#666666"
     borderopacity="1"
     objecttolerance="10"
     gridtolerance="10"
     guidetolerance="10"
     inkscape:pageopacity="0"
     inkscape:pageshadow="2"
     inkscape:window-width="1575"
     inkscape:window-height="1074"
     id="namedview3869"
     showgrid="false"
     inkscape:zoom="4.0000001"
     inkscape:cx="572.64077"
     inkscape:cy="682.98553"
     inkscape:window-x="0"
     inkscape:window-y="0"
     inkscape:window-maximized="0"
     inkscape:current-layer="g6604" /><g
     id="g3814"><path
       d="M719.594,428.378c-4.993,5.774-9.157,11.67-9.635,18.393   c-1.803-0.801-3.706-1.678-5.635-2.496c-2.626-1.113-5.369-1.995-7.88-3.322c-2.213-1.169-4.178-2.812-6.252-4.246   c-0.382,0.28-0.765,0.56-1.148,0.839c0.581,1.67,0.718,3.759,1.825,4.935c3.843,4.078,7.89,7.996,12.157,11.624   c1.253,1.065,3.496,0.964,6.084,1.591c-0.116-0.723,0.076-0.155,0.04,0.397c-0.056,0.874-0.432,1.749-0.374,2.604   c0.092,1.369-0.063,3.249,0.739,3.996c5.555,5.169,9.52,11.396,12.332,18.313c0.706,1.738,0.593,4.469-0.317,6.079   c-2.694,4.763-6.296,9.018-8.937,13.805c-2.689,4.874-4.885,10.059-6.876,15.27c-1.661,4.344-1.964,9.344-4.199,13.303   c-4.283,7.583-3.909,16.042-5.749,24.056c-1.307,5.689-1.797,11.565-2.863,18.801c-9.823-14.639-20.028-28.011-34.098-38.984   c2.476-2.533,4.79-5.678,7.812-7.833c6.187-4.414,8.863-11.236,12.715-17.245c0.542-0.846-0.143-2.554-0.412-3.83   c-1.021-4.833-9.38-7.28-13.742-5.817c-1.921,0.644-4.002,0.826-5.895,1.531c-2.128,0.793-5.052,0.392-5.079,4.285   c-0.081,11.534-0.48,23.066-0.848,34.598c-0.122,3.838-0.966,7.696-0.71,11.494c0.594,8.834,1.331,17.685,2.606,26.442   c1.807,12.426,3.777,24.852,6.396,37.126c1.65,7.738,4.575,15.208,7.025,22.768c0.322,0.991,1.096,2.354,1.882,2.526   c0.736,0.162,2.011-0.851,2.621-1.666c1.388-1.851,2.386-3.992,3.77-5.845c3.979-5.328,8.122-10.535,12.094-15.868   c1.464-1.964,2.795-4.065,3.899-6.25c2.408-4.767,4.715-9.588,6.909-14.456c2.616-5.806,5.259-11.612,7.54-17.554   c1.968-5.128,3.438-10.445,5.142-15.675c1.887-5.799,4.105-11.513,5.59-17.411c1.354-5.388,1.927-10.974,2.839-16.472   c1.485-8.965,4.056-17.907,4.241-26.898C725.7,477.148,727.034,452.861,719.594,428.378z"
       id="path3806"
       clip-rule="evenodd"
       fill-rule="evenodd"
       fill="#939598" /><path
       d="M586.73,466.042c-3.014-2.432-4.15-2.454-5.538,1.181   c-2.479,6.495-5.376,12.831-7.866,19.322c-2.275,5.931-4.665,11.871-6.249,18.003c-2.267,8.775-3.977,17.704-5.688,26.613   c-2.157,11.235-4.786,22.444-5.925,33.795c-1.586,15.803-2.051,31.722-2.84,47.598c-0.261,5.236,0.038,10.5-0.078,15.747   c-0.053,2.341-0.756,4.677-0.726,7.01c0.085,6.688,0.4,13.372,0.61,20.058c0.039,1.229,0.006,2.462,0.006,3.693   c0.408,0.067,0.816,0.134,1.225,0.202c1.451-3.404,2.966-6.783,4.342-10.219c3.766-9.407,7.532-18.816,11.185-28.268   c2.97-7.684,5.912-15.383,8.608-23.165c1.863-5.373,2.951-11.028,4.996-16.32c2.103-5.44,3.352-10.504-0.455-15.697   c-0.919-1.252-1.256-2.938-1.821-4.44c-3.083-8.205-5.22-16.605-6.251-25.356c-0.281-2.382-0.111-3.866,1.533-5.31   c9.352-8.209,15.762-18.635,22.027-29.174c1.377-2.315,3.122-4.459,4.185-6.905c2.328-5.37,4.327-10.882,6.644-16.801   c-0.102-0.053-0.905-0.778-1.783-0.884C598.777,475.749,592.69,470.85,586.73,466.042z"
       id="path3808"
       clip-rule="evenodd"
       fill-rule="evenodd"
       fill="#939598" /></g><g
     id="g3830"><path
       d="M640.896,240.979c-0.01-0.031-0.021-0.063-0.031-0.094   c-0.03-0.009-0.062-0.021-0.093-0.03L640.896,240.979z"
       id="path3824"
       clip-rule="evenodd"
       fill-rule="evenodd"
       fill="#406325" /></g><g
     id="g3838"><path
       d="M701.021,394.046c-1.761-0.978-2.366-1.094-3.599,0.09   l-2.873-5.947c-0.071-0.197-0.153-0.377-0.251-0.52c-3.451-5.014-7.216-9.814-10.927-14.646c-2.105-2.74-4.321-5.397-6.428-8.019   c-8.288,5.971-16.317,11.637-24.203,17.496c-2.513,1.867-5.685,3.251-6.547,6.474l-3.37,1.074c0.209-1.418,0.464-2.825,0.822-4.205   c1.159-4.459-1.49-6.538-3.833-9.321c-5.438,7.935-12.921,12.816-20.83,16.97c-3.637,1.911-7.815,2.884-11.838,3.939   c-3.82,1.001-5.36,3.715-3.655,7.275c0.374,0.781,1.198,1.506,1.216,2.27c0.082,3.747,1.289,6.918,3.021,9.926l-2.027,2.85   c-0.046-0.055-0.09-0.112-0.137-0.167c-2.511,4.247-5.017,8.038-7.071,12.06c-3.688,7.22-6.949,14.661-10.686,21.855   c-2.968,5.717-2.519,7.649,3.374,10.551c1.165,0.574,2.292,1.225,3.459,1.793c7.909,3.854,15.533,8.58,24.984,7.311   c2.503-0.336,5.227,0.473,7.611-0.152c6.348-1.664,12.895-3.15,18.729-6.002c4.446-2.173,8.385-5.927,11.694-9.722   c2.819-3.231,5.76-7.374,6.218-11.39c0.567-4.975,2.63-7.199,6.742-8.901c0.945-0.393,1.979-1.708,2.301-2.829h4.701l0.002-0.019   c0.41,2.362,0.836,4.722,1.254,7.08c0.305,1.713,1.192,3.322,2.134,5.838c3.996-6.221,4.244-13.627,10.526-17.214   c1.492,2.179,2.831,4.139,4.176,6.095c1.989,2.894,9.358,4.562,10.955,2.132c3.522-5.362,6.842-10.906,9.671-16.658   c2.526-5.137,4.282-10.652,6.393-16.037c-2.85-1.767-5.485-3.673-8.355-5.114C709.987,398.058,705.301,396.424,701.021,394.046z"
       id="path3834"
       clip-rule="evenodd"
       fill-rule="evenodd"
       fill="#8B9E6C" /><path
       d="M640.771,240.855c-0.002,0.04,0.002,0.072,0,0.111   c0.04,0.004,0.086,0.005,0.123,0.012C640.896,240.979,640.771,240.855,640.771,240.855z"
       id="path3836"
       clip-rule="evenodd"
       fill-rule="evenodd"
       fill="#8B9E6C" /></g><g
     id="g3846"><path
       fill-rule="evenodd"
       clip-rule="evenodd"
       fill="#5D540E"
       d="M541.752,370.564c-6.115,1.404-12.146,3.268-18.321,4.294   c-12.459,2.073-24.999,3.667-37.481,5.606c-0.898,0.14-2.438,1.787-2.281,2.197c1.322,3.448,2.229,7.494,4.665,9.992   c6.53,6.7,12.822,13.839,21.384,18.197c1.102,0.56,2.333,0.864,3.684,1.352c0.562-1.835,1.273-3.207,1.352-4.613   c0.157-2.843,1.863-3.199,3.999-2.752c3.665,0.765,7.379,1.456,10.913,2.65c5.31,1.794,10.481,3.995,16.06,6.158   c0-13.93,0-28.277,0-43.113C543.824,370.532,542.739,370.337,541.752,370.564z"
       id="path3840" /><path
       fill-rule="evenodd"
       clip-rule="evenodd"
       fill="#5D540E"
       d="M717.273,481.803c-1.911-3.205-4.991-5.74-6.751-9.004   c-3.681-6.824-8.688-11.655-15.646-14.009l-3.109-4.183c1.543,0.466,2.975,0.897,4.252,1.283c-2.705-2.686-6.234-6.188-9.781-9.71   c-0.536,0.646-1.223,1.474-2.013,2.425l-4.928,1.808c-1.488-2.31-2.991-4.371-4.077-6.622c-1.735-3.599-3.826-2.562-5.158-0.212   c-0.768,1.354-1.176,2.912-1.527,4.461c-0.231,1.021-0.44,2.037-0.708,2.989c0.149,0,0.29,0,0.438,0l-0.325,3.601   c-1.875,0.553-3.571,2.659-5.161,4.188c-5.11,4.912-9.44,11.031-15.328,14.633c-6.957,4.255-15.37,5.557-23.789,5.047   c-2.823-0.171-5.664-0.027-8.411-0.027c-0.962,2.864-1.879,5.43-2.675,8.033c-0.385,1.259-0.54,2.588-0.8,3.885   c0.691-0.039,1.411,0.002,2.113-0.006l0.999,2.951c-4.215,1.712-7.922,4.255-10.72,9.125c-5.254,9.141-12.103,17.462-18.953,25.552   c-4.34,5.126-5.893,9.7-3.011,16.072c2.787,6.163,4.602,12.762,6.913,19.144c2.154,5.95,4.409,11.863,6.604,17.799   c2.129,5.758,4.308,11.499,6.332,17.295c1.767,5.057,3.772,10.086,4.916,15.294c1.926,8.759,8.227,16.054,5.397,26.545   c-3.763,13.952-6.413,28.215-11.23,41.913c-1.356,3.856-2.07,7.964-3.672,11.702c-5.609,13.083-14.109,25.011-15.752,39.662   c-0.519,4.63-0.865,9.278-1.292,13.917c1.047-2.044,1.982-4.094,2.861-6.146l-0.001,0.009l2.405,8.596   c-1.877,6.323-3.74,12.655-5.07,19.093c-1.545,7.48-2.267,15.17-2.837,22.806c-1.061,14.203-1.745,28.435-2.636,43.493   c6.041,0,10.583-0.474,14.98,0.123c5.142,0.696,5.677,0.643,5.69-4.62c0.022-9.299-0.513-18.638,0.175-27.888   c0.972-13.07,2.761-26.084,4.364-39.103c0.755-6.124,1.681-12.245,2.913-18.288c1.156-5.672,2.735-11.263,4.282-16.846   c1.588-5.729,3.197-11.463,5.102-17.091c1.995-5.897,4.174-11.746,6.595-17.481c3.755-8.898,7.553-17.793,11.771-26.477   c2.895-5.955,6.61-11.506,9.773-17.338c0.624-1.15,0.87-2.902,0.491-4.131c-1.578-5.101-3.493-10.096-5.226-15.15   c-2.854-8.329-6.288-16.526-8.318-25.054c-2.068-8.694-2.649-17.735-4.074-26.594c-0.454-2.824-1.437-5.578-2.326-8.314   c-2.475-7.608-5.348-15.104-7.451-22.81c-1.789-6.559-2.729-13.349-4.104-20.338c-1.415,1.118-2.674,1.836-3.56,2.873   c-1.248,1.463-2.892,2.942-3.866,4.519l-2.465-2.947c1.596-2.138,3.162-4.308,5.009-6.201c4.31-4.42,8.485-9.129,13.445-12.71   c5.304-3.831,11.404-6.579,17.242-9.636c2.688-1.407,5.536-2.539,8.387-3.593c5.795-2.144,11.52-4.697,17.508-6.027   c4.294-0.954,8.998-0.517,13.462-0.09c3.018,0.288,5.911,2.271,8.901,2.383c0.907,0.034,1.784,0.133,2.622,0.29l1.078,3.441   c-0.183-0.021-0.354-0.043-0.523-0.066c-0.779-0.11-1.554-0.256-2.846-0.473c1.993,15.805-7.815,24.898-18.951,34.796   c2.583,2.125,5.284,4.304,7.929,6.549c0.812,0.689,1.468,1.561,2.194,2.348c0.554-0.665,1.276-1.271,1.787-1.952l3.083,2.982   c-0.234,1.335-0.19,2.842,0.4,3.721c2.275,3.388,5.121,6.392,8.248,10.155c0.577-2.395,1.027-4.191,1.44-5.996   c2.592-11.356,4.548-22.915,7.921-34.021l4.929-10.598c2.105-3.346,4.438-6.626,6.231-10.112c1.048-2.035,1.616-6.221,0.505-7.149   c-0.095-0.079-0.189-0.159-0.285-0.239l1.771-2.898c0.296,0.363,0.597,0.721,0.884,1.094c2.105,2.732,4.485,2.693,5.734-0.536   C718.642,486.042,718.227,483.398,717.273,481.803z"
       id="path3842" /><path
       fill-rule="evenodd"
       clip-rule="evenodd"
       fill="#5D540E"
       d="M511.687,371.523c-8.131-17.783-23.037-28.974-38.326-40.062   c4.348,15.193,10.652,29.837,9.896,46.261C493.034,375.591,502.017,373.632,511.687,371.523z"
       id="path3844" /></g><g
     id="g3854"><path
       d="M649.89,503.594c-3.335,1.547-7.009,2.037-7.918,3.886   l-9.415,4.917c0.129-0.393,0.253-0.785,0.385-1.178c-0.326-0.211-0.652-0.422-0.979-0.633c-1.133,0.725-2.303,1.395-3.39,2.183   c-0.748,0.542-1.479,1.118-2.206,1.704c-2.567,2.068-5.071,4.268-7.983,5.552c-4.105,1.812-5.182,4.384-4.586,8.286   c0.666,4.347,1.385,8.687,2.162,13.015c0.722,4.017,1.343,8.07,2.391,12.006c1.099,4.121,2.655,8.12,4.012,12.173   c0.399-0.153,0.801-0.306,1.2-0.457c-0.008-2.167,0.039-4.325,0.13-6.477l4.036,0.713c-0.581,7.632-0.751,15.344-0.103,22.92   c0.804,9.388,3.246,18.642,5.105,27.927c0.329,1.646,0.922,3.575,2.069,4.659c3.831,3.625,7.926,6.977,12.002,10.334   c4.024,3.315,8.122,6.545,12.241,9.743c1.907,1.479,3.942,2.795,5.92,4.185c0.295-0.269,0.592-0.537,0.887-0.807   C647.539,595.34,645.147,550.488,649.89,503.594z"
       id="path3848"
       clip-rule="evenodd"
       fill-rule="evenodd"
       fill="#C2B59B" /><path
       d="M607.253,632.652c-1.049-5.477-3.407-10.715-5.36-16.001   c-2.86-7.739-5.858-15.429-8.776-23.146c-1.212-3.204-2.365-6.429-3.942-10.727c-1.674,3.132-2.895,6.053-3.581,8.942   c-0.687,2.891-0.839,5.752-0.379,8.761c0.195,1.275,0.387,2.551,0.578,3.827l-2.46,4.069c-0.066-0.835-0.126-1.671-0.199-2.506   c-0.072-0.826-0.916-1.585-1.693-2.849c-2.957,8.677-5.097,16.7-8.418,24.201c-2.662,6.013-4.114,12.051-4.297,18.396l-4.408,8.325   c0-1.452,0-2.9,0-4.357c-0.976,0.646-1.467,0.796-1.646,1.118c-3.397,6.079-6.723,12.198-10.143,18.263   c-0.083,0.147-0.171,0.293-0.255,0.439l-4.388,4.825l-2.539-8.152c1.091,0.423,2.175,0.842,3.286,1.278   c0.164-1.686,0.42-2.824,0.358-3.945c-0.235-4.295-0.774-8.581-0.833-12.876c-0.13-9.625-0.04-19.255-0.04-28.883   c0-12.171-0.099-24.343,0.043-36.512c0.066-5.794,0.15-11.647,0.998-17.36c1.785-12.035,4.071-23.997,6.166-35.985   c0.909-5.206,1.528-10.492,2.867-15.587c1.762-6.703,4.001-13.29,6.229-19.86c1.717-5.068,3.561-10.108,5.658-15.028   c3.024-7.094,6.289-14.088,9.531-21.087c2.437-5.26,4.678-10.648,7.584-15.644c3.685-6.336,8.006-12.302,11.928-18.506   c0.716-1.132,0.834-2.642,1.222-3.955c-2.578,0.332-4.879,0.8-7.063,1.092l-1.344-6.719c3.789-0.571,7.514-1.517,11.203-3.073   c-10.409-4.296-19.317-10.303-27.108-20.233c-0.126,0.301-0.247,0.589-0.372,0.887l-3.327-2.511   c3.091-5.335,6.664-10.251,10.413-14.806c-3.771-6.175-6.868-11.529-10.309-16.653c-0.74-1.103-3.094-2.278-4.069-1.877   c-5.646,2.323-11.176,4.966-16.582,7.812c-2.011,1.059-3.443,2.965-2.675,5.699c2.833,10.081,1.971,20.269,0.839,30.469   c-0.448,4.034-0.716,8.087-1.062,12.103c1.17,0.113,2.298,0.222,3.403,0.328l-2.979,4.846c-3.368-0.713-6.729-1.478-10.097-2.178   c-3.826-0.796-7.623-1.754-11.395-2.784c-1.248-0.34-2.534-0.936-3.527-1.751c-3.094-2.538-4.607-1.995-6.02,1.759   c-0.361,0.96-0.726,1.925-1.1,2.888l-9.309-2.173c-4.947-3.966-10.516-7.254-14.996-11.664c-4.855-4.778-8.651-10.625-12.979-15.95   c-3.552-4.373-7.246-8.634-10.787-13.012l-2.166-14.71c1.766,6.425,3.212,12.759,8.013,17.752c1.192,1.24,2.036,2.814,3.041,4.235   c0.333-0.125,0.666-0.249,1-0.373c-0.26-2.283-0.425-4.581-0.801-6.844c-0.622-3.746-1.35-7.476-2.087-11.202   c-1.108-5.595-1.965-11.262-3.47-16.75c-2.182-7.954-4.998-15.731-7.267-23.663c-2.825-9.879-7.65-18.732-13.099-27.345   c-6.657-10.524-17.627-16.051-27.034-23.31c-5.583-4.307-12.021-7.69-18.454-10.667c-9.233-4.273-18.649-8.288-28.292-11.494   c-8.657-2.878-17.71-4.587-26.622-6.67c-4.271-0.998-8.593-1.915-12.944-2.345c-1.401-0.139-3.712,1.02-4.323,2.232   c-2.066,4.099-3.442,8.54-5.302,12.752c-1.641,3.714-3.458,7.362-5.416,10.918c-1.905,3.462-4.087,6.772-6.147,10.148   c2.601,0.271,4.616-0.115,6.347-1.036c1.844-0.981,3.262-3.207,5.139-3.606c8.595-1.83,17.24-4.11,25.951-4.541   c1.511-0.075,3.019-0.113,4.524-0.123l16.798,8.565c-0.839-0.137-1.677-0.277-2.51-0.436c-4.909-0.931-9.781-2.361-14.728-2.691   c-3.435-0.229-6.969,1.039-10.459,1.633c-4.755,0.811-9.764,0.933-14.211,2.577c-7.731,2.859-15.601,5.391-23.264,8.523   c-9.363,3.828-19.779,6.193-30.398,6.104c-7.722-0.065-15.451,0.761-23.416,1.204c0,0.723-0.179,1.286,0.026,1.584   c4.688,6.797,8.956,13.779,10.916,21.951c1.932,8.053,4.35,16.005,5.925,24.124c1.177,6.062,1.642,12.306,1.91,18.491   c0.472,10.878,0.533,21.774,0.818,32.661c0.029,1.104,0.414,2.199,0.634,3.298c0.878-0.862,2.238-1.581,2.542-2.613   c0.868-2.935,0.882-6.163,1.987-8.98c4.875-12.431,8.767-25.284,16.32-36.569c3.967-5.925,6.414-13.018,10.981-18.357   c7.448-8.708,15.771-16.748,24.327-24.395c3.98-3.557,9.174-6.004,14.171-8.119c9.26-3.92,18.911-5.222,29.144-4.571   c9.079,0.577,17.304,2.849,24.955,7.329l3.736,4.234l-1.147,0.906c-0.53-0.252-1.058-0.508-1.596-0.738   c-7.447-3.188-14.944-7.038-23.432-7.022c-7.986,0.015-16.062-0.934-23.693,2.661c-3.374,1.589-7.142,2.389-10.412,4.141   c-4.218,2.259-8,5.322-12.177,7.669c-8.795,4.942-14.3,13.147-19.698,21.002c-4.853,7.062-7.924,15.405-11.363,23.363   c-2.974,6.88-5.519,13.959-7.955,21.053c-1.977,5.755-3.453,11.68-5.258,17.497c-2.445,7.881-5.25,15.66-7.422,23.614   c-2.149,7.873-3.674,15.917-5.529,23.872c-1.442,6.182-2.965,12.344-4.473,18.509c-0.137,0.56-0.498,1.063-0.645,1.622   c-1.881,7.164-3.938,14.291-5.545,21.516c-1.239,5.569-1.692,11.311-2.88,16.893c-1.881,8.839-4.329,17.56-6.083,26.42   c-1.821,9.195-3.022,18.512-4.638,27.751c-2.3,13.148-4.738,26.272-7.102,39.409c-0.65,3.61-1.306,7.221-1.853,10.847   c-1.664,11.04-3.322,22.081-4.877,33.136c-0.454,3.226-0.288,6.551-0.875,9.744c-1.214,6.603-2.849,13.129-4.013,19.738   c-0.15,0.854,1.319,2.222,2.324,2.961c0.587,0.433,1.747,0.15,2.642,0.094c11.267-0.707,22.533-1.426,33.798-2.146l-12.604,7.55   c-20.248,0.089-40.917-2.049-61.939-5.973c-0.782,19.771-5.236,38.557-12.502,57.272c5.01,0,9.948,0,14.846,0l-2.087,5.01   c-4.248-0.179-8.495-0.403-12.734-0.632c-7.945-0.428-15.847-1.683-23.765-2.599c-8.41-0.974-8.731-0.783-11.891,7.273   c-0.32,0.816-0.679,1.677-1.237,2.333c-3.081,3.617-6.822,6.819-9.236,10.827c-5.865,9.739-14.868,16.491-22.358,24.666   c-2.481,2.709-5.498,4.928-8.46,7.537c7.297,1.42,14.127,2.876,21.004,4.047c5.077,0.866,10.227,1.299,15.328,2.038   c9.599,1.389,19.151,3.186,28.786,4.211c10.565,1.124,21.051,2.159,31.54,4.303c11.917,2.437,24.272,2.781,36.454,3.852   c6.367,0.559,12.79,0.512,19.152,1.111c10.428,0.982,20.809,2.938,31.245,3.235c10.055,0.286,20.171-0.815,30.232-1.647   c15.083-1.249,30.259-2.062,44.512-8.08c6.543-2.764,13.524-4.613,19.793-7.866c0.316-0.164,0.624-0.345,0.936-0.517l9.565,1.979   c-0.966,0.893-1.704,2.031-2.701,3.243c5.953,0.502,11.123,1.074,16.309,1.351c12.845,0.682,25.697,1.208,38.543,1.868   c1.051,0.054,2.058,0.871,3.112,0.949c2.351,0.173,4.723,0.179,7.079,0.084c0.732-0.03,1.497-0.966,2.152-0.867   c2.604,0.398,5.189,1.587,7.749,1.501c11.296-0.383,22.577-1.172,33.87-1.676c4.855-0.217,5.629-1.218,4.729-5.983   c-0.312-1.653-0.594-3.32-0.84-4.992l5.541-6.048c0.172,4.774,1.245,4.739,7.982,4.398c0.598-0.03,1.199-0.006,1.799-0.006   c11.246,0,22.49-0.005,33.736,0.008c1.192,0.001,2.525-0.22,3.553,0.223c3.761,1.62,4.871,0.286,5.105-2.521l2.688,1.116   c0.188,1.549,1.296,2.772,2.971,3.969c0.893-1.296,2.221-2.36,2.359-3.562c1.064-9.231,1.991-18.481,2.77-27.743   c0.486-5.77,0.456-11.585,1.001-17.348c0.455-4.809,0.483-9.965,2.32-14.278c5.225-12.275,11.3-24.187,16.945-36.286   c0.348-0.746,0-1.914-0.251-2.824c-0.291-1.062-0.603-2.117-0.918-3.173l3.377-8.705c0.024,0.103,0.048,0.204,0.071,0.307   c0.246,1.051,1.021,1.979,1.919,3.651c2.181-11.277,4.169-21.474,6.116-31.678C606.319,639.519,607.869,635.869,607.253,632.652z    M567.619,777.614c-0.078,0.162-0.146,0.319-0.209,0.475l0.517-3.074C567.971,775.948,567.977,776.875,567.619,777.614z"
       id="path3850"
       clip-rule="evenodd"
       fill-rule="evenodd"
       fill="#C2B59B" /><path
       d="M611.688,741.217c-4.467,14.202-8.137,28.541-6.591,44.444   c9.795,0,19.41,0,29.927,0c-7.418-14.837-14.784-29.576-22.152-44.316C612.477,741.302,612.083,741.259,611.688,741.217z"
       id="path3852"
       clip-rule="evenodd"
       fill-rule="evenodd"
       fill="#C2B59B" /></g><g
     inkscape:groupmode="layer"
     id="layer5"
     inkscape:label="Head"
     style="display:inline"><g
       inkscape:groupmode="layer"
       id="layer8"
       inkscape:label="black fill"
       sodipodi:insensitive="true"><path
         style="fill:#000000;fill-opacity:1;stroke:#000000;stroke-width:1px;stroke-linecap:butt;stroke-linejoin:miter;stroke-opacity:1"
         d="m 488.96433,340.21067 c 0,0 15.9099,19.09188 21.2132,22.27386 5.3033,3.18198 42.07285,-24.74874 42.07285,-24.74874 l -23.5113,-17.85444 -37.29988,12.19759 z"
         id="path6010"
         inkscape:connector-curvature="0" /></g><g
       inkscape:groupmode="layer"
       id="layer6"
       inkscape:label="outline"
       style="display:inline"
       sodipodi:insensitive="true"><path
         style="clip-rule:evenodd;opacity:1;fill:#000000;fill-opacity:1;fill-rule:nonzero;stroke:#000000;stroke-opacity:1"
         d="m 576.16797,354.9805 c 8.284,-7.807 18.00644,-7.49049 27.77344,-7.02149 1.795,0.086 3.60648,0.11061 5.39648,-0.0254 1.139,-0.086 2.38042,-0.29093 3.35742,-0.83593 6.857,-3.835 12.00961,-8.90902 11.97461,-17.66602 1.703,-0.503 2.96147,-0.89605 4.23047,-1.24805 7.597,-2.1 15.23339,-4.06761 22.77539,-6.34961 2.542,-0.769 4.79558,-2.44004 7.26758,-3.49804 4.677,-2.002 9.6885,-3.38749 14.0625,-5.89649 5.373,-3.082 10.35702,-6.89278 15.29102,-10.67578 7.42,-5.691 11.28753,-13.40723 10.89453,-22.74023 -0.367,-8.749 -4.08788,-16.35392 -9.17188,-22.04492 2.077,-5.168 3.88391,-9.66332 5.50391,-13.69532 3.7,-0.966 7.97465,-0.9359 10.59765,-3.0039 5.55,-4.378 12.7903,-6.52219 16.4043,-13.74219 2.462,-4.92 6.93616,-8.89797 10.78516,-13.04297 4.266,-4.594 8.589,-9.19875 13.375,-13.21875 3.105,-2.608 7.0375,-4.26759 10.6875,-6.18359 2.579,-1.353 5.20323,-2.82839 7.99023,-3.52539 4.517,-1.129 9.18363,-1.66427 13.76563,-2.44727 0.718,-8.628 0.75331,-8.70225 -6.67969,-12.28125 -3.508,-1.689 -7.58522,-2.45748 -10.69922,-4.64648 -6.295,-4.424 -13.54652,-4.4656 -20.47852,-4.8086 -13.193,-0.652 -26.28992,0.54903 -39.16992,4.20703 -5.45,1.548 -11.3919,1.49338 -17.1289,1.85938 -4.482,0.285 -8.99514,0.11833 -13.49414,0.11133 -5.582,-0.008 -11.16324,0.0111 -16.74024,-0.17188 -0.751,-0.025 -1.88772,-1.02187 -2.13672,-1.79687 -4.077,-12.71 -10.78728,-24.17432 -17.61328,-35.44532 -5.722,-9.448 -12.44758,-18.36407 -20.39258,-26.20507 -1.913,-1.888 -3.69114,-3.9333 -5.74414,-5.6543 -6.792,-5.694001 -13.01617,-12.537126 -20.70117,-16.578126 -9.829,-5.169 -20.0515,-9.77414 -31.4375,-11.86914 -18.15,-3.339 -34.86709,-0.281532 -51.12109,7.480468 -3.534,1.687 -7.23264,3.280813 -10.30664,5.632813 -5.603,4.284 -10.87991,9.011375 -16.12891,13.734375 -3.211,2.887 -6.3718,5.90323 -9.0918,9.24023 -2.914,3.576 -5.28584,7.59658 -8.21484,11.89258 -7.078,-5.194 -13.61341,-10.02578 -20.19141,-14.80078 -3.473,-2.521 -7.28165,-4.64366 -10.47265,-7.47265 -5.433,-4.814005 -10.51894,-10.022474 -15.71094,-15.105474 -3.878,-3.796 -7.82405,-7.53739 -11.49805,-11.52539 -3.132,-3.398 -5.89723,-7.133547 -8.86523,-10.685547 -4.195,-5.019 -8.61899,-9.858781 -12.58399,-15.050781 -3.422,-4.483001 -6.3395,-9.351922 -9.8125,-14.544922 -1.057,3.164 -2.30746,5.695328 -2.73046,8.361328 -2.837,17.848 -3.25268,35.839187 -2.76368,53.867187 0.028,1.043 -0.0105,2.109 0.18555,3.125 2.015,10.447999 3.48234,21.049109 6.27734,31.287109 3.089,11.313 7.36185,22.30625 11.21485,33.40625 0.971,2.794 2.30756,5.4615 3.47656,8.1875 -0.507,0.38 -1.01448,0.76063 -1.52148,1.14063 -8.612,-3.078 -15.87889,-8.28257 -22.3379,-15.72657 10e-6,2.531 -0.013,4.32805 0.002,6.12305 0.084,10.376 -0.74633,21.03009 9.38867,28.12109 0.732,0.512 0.53744,2.34641 0.77344,3.56641 -1.036,-0.037 -2.21013,0.22717 -3.07813,-0.17383 -1.912,-0.884 -3.617,-2.20501 -5.5,-3.16601 -6.285,-3.209 -12.61134,-6.33924 -19.40234,-9.74024 2.346,19.768 7.74262,39.05406 18.89062,57.28906"
         id="path5514"
         inkscape:connector-curvature="0" /><path
         id="path5510"
         style="clip-rule:evenodd;opacity:1;fill:#8b9e6c;fill-opacity:1;fill-rule:evenodd;stroke:#000000;stroke-opacity:1"
         d="m 381.79496,57.863301 c 1.65,2.003 3.3666,3.956485 4.9336,6.021485 2.39,3.151 4.42668,6.602296 7.05468,9.529296 6.306,7.018 12.51164,14.18936 19.43164,20.56836 6.192,5.708 13.30666,10.411328 19.97266,15.611328 3.4,2.652 6.69345,5.44086 10.06445,8.13086 6.709,5.355 13.66085,10.43252 20.08985,16.10351 5.29,4.66701 9.95173,10.04336 14.92773,15.06836 1.642,1.657 3.41175,3.18374 5.09375,4.80274 7.241,6.971 11.3755,16.00322 16.1875,24.57422 0.821,1.463 1.17486,3.18734 2.00586,5.52734 8.453,-19.155 17.39786,-21.61012 29.13086,-24.57812 -1.664,-2.277 -2.87061,-4.6585 -4.72461,-6.3125 -3.897,-3.473 -7.99553,-6.76091 -12.26953,-9.75391 -4.331,-3.032 -8.82806,-5.91502 -13.53906,-8.29102 -2.939,-1.482 -6.36721,-2.36935 -9.65821,-2.69335 -4.781,-0.469 -9.64398,-0.34307 -14.45898,-0.16407 -2.488,0.092 -8.94236,-3.07512 -8.69336,-5.20312 0.237,-2.024 1.58967,-4.30561 3.13867,-5.72461 7.819,-7.165 15.55641,-14.48041 23.94141,-20.94141 5.116,-3.940998 11.35822,-6.415889 17.07422,-9.587889 1.563,-0.867 2.93998,-2.158484 4.58398,-2.771484 10.528,-3.93 21.35034,-7.445953 32.65235,-6.001953 7.997,1.022 16.05234,3.215047 23.52734,6.248047 7.42,3.01 14.67316,7.036812 21.03516,11.882812 6.625,5.045997 12.15359,11.550527 18.05859,17.519527 4.82,4.872 9.62736,9.77 14.19336,14.875 8.582,9.593 11.92801,20.94394 10.79101,33.71094 -0.184,2.079 -0.0254,4.19016 -0.0254,6.28516 0.49,0.064 0.97975,0.12545 1.46875,0.18945 0.674,-5.879 1.34844,-11.75581 2.02344,-17.63281 0.41,-0.05 0.82142,-0.10234 1.23242,-0.15235 3.992,8.30201 7.98161,16.6041 11.47461,23.8711 2.546,-0.553 4.82346,-1.81497 6.56445,-1.29297 7.309,2.193 14.55086,2.90648 22.13086,1.64648 6.105,-1.015 12.34319,-1.20037 18.49219,-1.98437 9.769,-1.246 19.47925,-3.15402 29.28125,-3.91602 11.336,-0.881 22.80163,-2.11698 33.89063,2.29102 3.439,1.367 6.89558,2.05059 8.64257,6.05859 0.51701,1.185 3.30069,1.37893 5.30469,2.91993 -21.53,-0.24301 -36.86522,10.16042 -49.19922,27.98242 -0.217,-2.344 -0.31745,-3.5461 -0.43945,-4.7461 -0.613,-6.001 -1.35009,-11.99376 -1.74609,-18.00976 -0.073,-1.125 1.03262,-3.20296 1.89062,-3.37696 7.167,-1.453 14.40728,-2.54164 21.61328,-3.80664 0.908,-0.159 1.73505,-0.98143 2.62305,-1.02343 2.659,-0.125 5.5625,-0.67304 7.9375,0.16797 3.034,1.074 5.40377,1.78837 8.13477,-2.39063 -7.629,-0.392 -14.73243,-1.67311 -21.60743,-0.91211 -12.437,1.377 -23.89028,6.34994 -35.11328,11.83594 -7.739,3.783 -15.7884,6.93186 -23.6914,10.38086 -4.022,1.756 -7.27153,1.51161 -10.51954,-2.15039 -4.036,-4.55 -9.28126,-7.67489 -15.19726,-9.46289 -0.414,-0.126 -0.90184,-0.0922 -1.33984,-0.0312 -0.405,0.057 -0.79044,0.24903 -2.14844,0.70703 11.408,6.038 21.1877,12.92961 26.2207,24.34961 -8.565,1.604 -16.46714,3.67292 -24.49414,4.41992 -8.011,0.745 -16.143,0.16406 -24.625,0.16406 1.962,-9.154 6.32648,-15.52319 14.89648,-18.86719 -4.905,-1.5 -11.05568,1.09354 -12.80468,5.26954 -1.632,3.89699 -2.9203,7.94106 -4.6543,11.78906 -0.37,0.82 -2.00655,1.07003 -3.06055,1.58203 -0.201,-0.969 -0.84715,-2.12186 -0.53515,-2.88086 3.386,-8.242 4.59312,-16.88878 2.57812,-25.42578 -1.048,-4.44 -3.70078,-9.36772 -7.17578,-12.13672 -3.984,-3.176 -4.73756,-6.86999 -5.10156,-10.95899 -1.037,-11.59899 -5.59708,-21.13628 -14.83008,-28.48828 -2.78,-2.213 -5.08416,-4.67648 -9.03516,-4.64648 -0.763,0.006 -1.85076,-1.8512 -2.25976,-3.0332 -1.935,-5.575 -3.36685,-11.34397 -5.58984,-16.79297 -2.284,-5.599 -7.11055,-8.62397 -12.93555,-10.54297 2.699,3.095 5.2729,5.9632 7.7539,8.9082 4.465,5.298 6.54957,11.44419 6.85157,18.36719 0.059,1.371 1.46793,3.03841 2.71093,3.94141 4.052,2.945 8.89829,5.0219 12.36329,8.5039 5.127,5.155 8.85215,11.44727 10.41015,18.82227 1.403,6.644 2.72319,12.83204 7.74219,18.62304 6.019,6.945 6.52398,16.69215 5.45898,25.99415 -0.302,2.63099 -0.62192,5.25817 -1.04492,8.82617 -3.422,-0.772 -6.98353,-1.00372 -10.01953,-2.38672 -5.725,-2.609 -11.17945,-5.82753 -16.68945,-8.89453 -4.706,-2.621 -9.36938,-5.32357 -13.98438,-8.10157 -2.8,-1.686 -5.32942,-3.87203 -8.23242,-5.33203 -6.758,-3.398 -13.53173,-6.84118 -20.55273,-9.61718 -7.764,-3.07 -15.88129,-2.92266 -23.73829,-0.0977 -1.76699,0.634 -3.01789,2.70387 -4.96289,4.54687 6.02,-0.816 11.23963,-3.75046 16.76563,-0.73046 -2.708,3.662 -5.6428,6.81714 -7.5918,10.49414 -1.93,3.64 -2.86595,7.80629 -4.25195,11.77929 -5.673,-0.459 -12.08124,-0.97904 -18.49023,-1.49804 -0.075,0.5 -0.14866,1 -0.22266,1.5 4.077,0.724 8.15316,1.44737 13.28516,2.35937 -4.982,1.976 -9.24577,3.66933 -13.50977,5.36133 0.108,0.431 0.21917,0.86001 0.32617,1.29102 3.286,-0.57 6.62984,-0.9214 9.83984,-1.7754 3.13701,-0.835 6.13729,-2.18668 9.86329,-3.55468 -0.79,9.37 1.85618,16.97679 6.24218,24.09179 6.564,10.649 16.41622,15.30852 28.57422,15.10352 6.776,-0.115 13.53374,-1.11302 20.30274,-1.66602 1.004,-0.082 2.02951,0.0953 3.85351,0.19727 -23.81,33.617 -57.01893,52.29614 -94.46094,65.49414 2.505,-0.165 5.03391,-0.15897 7.50391,-0.54297 2.436,-0.378 4.89417,-0.93397 7.20117,-1.79297 7.934,-2.954 15.92807,-5.79593 23.66407,-9.21094 7.72,-3.408 15.2892,-7.22198 22.6582,-11.33398 2.798,-1.56 4.77662,-4.53794 7.26562,-6.71094 3.95,-3.448 8.53322,-5.63717 13.82422,-5.95117 8.649,-0.514 17.40189,-2.01439 25.96289,2.09961 -0.98,1.895 -1.85745,3.59506 -3.31445,6.41406 8.347,-7.029 11.11966,-5.22404 16.97266,0.62696 0.536,0.537 0.0254,2.8872 -0.72657,3.7832 -1.495,1.778 -3.49801,3.12925 -5.29101,4.65625 0.238,0.361 0.47779,0.72298 0.71679,1.08398 1.80701,-1.166 3.77677,-2.14406 5.38477,-3.53906 3.05,-2.645 5.15697,-2.50273 7.29297,1.19727 0.598,1.037 3.04025,1.57715 4.53125,1.41015 2.736,-0.306 5.36275,-1.48565 8.09375,-1.97265 3.024,-0.539 6.10987,-0.70807 9.17187,-1.03907 0.384,0.331 0.7693,0.66024 1.1543,0.99024 -1.785,2.653 -3.14364,5.76709 -5.43164,7.87109 -6.799,6.249 -14.13319,11.92764 -22.49219,15.93164 -1.687,0.809 -4.41415,-0.55493 -6.16015,-0.83593 0.303,2.386 1.01745,5.6289 1.06445,8.8789 0.09,6.326 -4.15656,11.05049 -10.22656,13.27149 -11.775,4.306 -22.54288,2.10687 -32.92188,-4.07813 -0.481,-0.287 -1.09411,-0.39947 -1.66211,-0.48047 -0.429,-0.061 -0.88623,0.0576 -2.36523,0.1836 2.817,2.417 5.14883,4.27903 7.29883,6.33203 0.897,0.857 1.9052,2.12017 1.9082,3.20117 10e-4,0.652 -1.77956,1.41836 -2.85156,1.94336 -4.049,1.98 -8.04947,4.10648 -12.23047,5.77148 -9.854,3.922 -19.82727,7.54178 -29.69727,11.42578 -3.853,1.517 -7.48951,3.58932 -11.35351,5.07032 -2.076,0.796 -4.42614,0.87767 -7.24414,1.38867 -2.39,-3.584 -5.36627,-7.75525 -7.94727,-12.15625 -0.542,-0.924 0.3706,-2.69949 0.55859,-3.77149 12.973,-2.814 24.53349,-7.97223 35.27149,-14.99023 -0.161,-0.423 -0.32042,-0.84458 -0.48242,-1.26758 -5.182,1.743 -10.37597,3.44928 -15.54297,5.23828 -5.661,1.96 -11.29722,3.99933 -16.94922,5.98633 -0.269,0.094 -0.68281,-0.0991 -0.88281,0.0449 -7.387,5.331 -10.08858,-1.64982 -14.89258,-5.54883 8.218,-4.46399 15.88764,-8.62892 23.55664,-12.79492 -0.306,-0.686 -0.60906,-1.37064 -0.91406,-2.05664 -3.273,1.202 -6.62588,2.22344 -9.79688,3.64844 -4.687,2.106 -8.90412,3.49958 -13.70312,5.26758 -1.719,0.63405 -4.99697,1.27148 -6.41797,0.0215 -6.662,-5.858 -13.06903,-12.01864 -19.33203,-18.30664 -1.787,-1.793 -3.1926,-4.227 -4.0586,-6.625 -3.391,-9.383 -9.02943,-17.28348 -15.02343,-25.14648 -5.789,-7.594 -13.50254,-12.8851 -20.51954,-18.9961 -2.65,-2.308 -6.31359,-3.57857 -9.68359,-4.89257 -2.829,-1.103 -1.981,-2.1963 -0.625,-3.7793 6.863,-8.016 13.69434,-16.05861 20.52735,-24.09961 1.241,-1.461 2.44875,-2.95164 3.46874,-4.18164 4.799,2.267 9.30455,4.39353 13.81055,6.51953 0.307,-0.633 0.61488,-1.26639 0.92188,-1.90039 -2.585,-1.377 -5.45813,-2.39336 -7.70313,-4.19336 -8.111,-6.502 -16.43419,-12.8335 -23.86719,-20.0625 -6.693,-6.509 -12.96914,-13.66556 -18.24414,-21.35156 -5.487,-7.996 -9.96772,-16.7696 -14.13671,-25.5586 -5.10201,-10.757 -9.58433,-21.76661 -11.98633,-33.59961 -2.083,-10.263 -5.26511,-20.30117 -7.91211,-30.45117 -0.239,-0.913998 -0.11711,-1.923669 -0.16211,-2.888669 0.532,-0.129 1.0637,-0.258719 1.5957,-0.386719 1.617,4.368998 3.18933,8.757468 4.86133,13.105468 3.026,7.868 5.87409,15.81811 9.24609,23.53711 2.881,6.596 6.16764,13.04017 9.68164,19.32617 4.675,8.359 9.32668,16.73841 16.01368,23.81641 5.469,5.789 10.37923,12.10205 15.74023,17.99805 1.646,1.809 3.93652,3.04551 5.97852,4.47851 9.174,6.433 18.31956,12.83894 29.35156,15.96094 4.004,1.133 7.66008,3.44908 11.58008,4.95508 1.239,0.476 2.81465,0.0723 4.09765,0.0723 0,-6.028 -0.0161,-11.64376 0.004,-17.25976 0.03,-8.886 -3.22988,-16.87914 -7.42188,-24.36914 -3.978,-7.108 -8.47314,-14.01879 -13.49414,-20.42579 -4.169,-5.32 -9.32914,-9.88884 -14.24414,-14.58984 -4.007,-3.833 -8.39931,-7.26259 -12.44531,-11.05859 -6.38,-5.988 -12.84394,-11.9143 -18.83594,-18.2793 -4.702,-4.994 -8.91725,-10.48328 -13.03125,-15.988281 -4.285,-5.733 -8.63562,-11.497985 -12.14062,-17.708985 -4.016,-7.116 -7.13358,-14.736671 -10.64258,-22.138672 0.554,-0.380999 1.11006,-0.763531 1.66406,-1.144531 z"
         inkscape:connector-curvature="0" /><path
         style="clip-rule:evenodd;opacity:1;fill:#406325;fill-opacity:1;fill-rule:nonzero;stroke:#000000;stroke-opacity:1"
         d="m 374.62113,48.273458 c 4.343,23.384 16.19704,42.847546 31.08203,60.810542 -6.90999,8.364 -11.00929,17.77513 -9.52929,29.45313 -11.724,-9.81 -26.44874,-71.359673 -21.55274,-90.263672 z"
         id="path5512"
         inkscape:connector-curvature="0" /><path
         style="clip-rule:evenodd;opacity:1;fill:#406325;fill-opacity:1;fill-rule:nonzero;stroke:#000000;stroke-opacity:1"
         d="m 406.75199,111.11525 c 8.01,7.37 15.26357,14.21236 22.72657,20.81836 2.321,2.053 2.23612,3.70454 0.20312,5.51953 -6.234,5.565 -7.33951,13.16502 -8.47852,20.79102 -0.82899,5.552 -1.76045,11.09083 -2.81445,17.67383 -3.668,-5.054 -6.85826,-9.24961 -9.82226,-13.59961 -2.057,-3.018 -3.45596,-6.53208 -5.75196,-9.33008 -6.912,-8.421 -4.26348,-17.60353 -2.14648,-26.51953 1.251,-5.27 3.98298,-10.18852 6.08398,-15.35352 z"
         id="path5508"
         inkscape:connector-curvature="0" /><path
         style="clip-rule:evenodd;opacity:1;fill:#406325;fill-opacity:1;fill-rule:nonzero;stroke:#000000;stroke-opacity:1"
         d="m 435.29887,139.28322 c 1.3652,0.0778 2.84706,0.97646 4.5625,2.65821 3.947,3.871 8.35647,7.26589 12.48047,10.96289 1.009,0.904 1.69287,2.16893 2.67187,3.46093 -7.9,2.193 -11.90395,7.37622 -13.00195,14.44922 -1.311,8.459 -1.84197,17.03914 -2.79297,26.36914 -2.854,-2.745 -5.50941,-5.32018 -8.19141,-7.86718 -1.433,-1.36 -2.75834,-2.91699 -4.40234,-3.95899 -5.586,-3.542 -5.39175,-9.25986 -4.34375,-14.25586 1.988,-9.481 2.90694,-19.35751 8.08594,-27.97851 1.61325,-2.68425 3.17638,-3.93989 4.93164,-3.83985 z"
         id="path5504"
         inkscape:connector-curvature="0" /><path
         style="clip-rule:evenodd;opacity:1;fill:#406325;fill-opacity:1;fill-rule:nonzero;stroke:#000000;stroke-opacity:1"
         d="m 455.69535,160.70314 c 1.83514,0.0615 3.60531,0.73008 5.02344,2.0254 3.292,3.004 5.9045,6.9834 8.0625,10.9414 3.101,5.689 6.67341,11.51685 7.94141,17.71485 1.699,8.312 1.41262,17.03298 1.89062,25.58398 0.034,0.611 -0.6659,1.26422 -0.6289,1.19922 -6.375,-2.846 -12.05511,-5.17249 -17.53711,-7.89649 -3.921,-1.951 -7.57375,-4.44035 -11.34375,-6.69336 -0.123,-0.075 -0.19136,-0.25654 -0.31836,-0.31054 -9.293,-3.923 -5.88521,-11.46103 -5.15821,-18.20703 0.583,-5.409 0.56441,-11.01111 2.06641,-16.16211 1.61219,-5.52888 5.96465,-8.33055 10.00195,-8.19532 z"
         id="path5502"
         inkscape:connector-curvature="0" /><path
         style="clip-rule:evenodd;opacity:1;fill:#939598;fill-opacity:1;fill-rule:nonzero;stroke:#000000;stroke-opacity:1"
         d="m 478.6309,134.33986 c 10.64,3.323 22.05528,4.49541 31.61328,10.81641 5.047,3.338 9.35217,7.80048 14.45117,12.14648 -10.474,2.897 -18.34137,7.45233 -22.35937,17.98633 -2.267,-5.804 -3.77563,-10.82244 -6.14063,-15.39844 -2.354,-4.55399 -5.28737,-8.8882 -8.48437,-12.9082 -3.157,-3.97 -6.95952,-7.42542 -10.47852,-11.10742 0.465,-0.512 0.93144,-1.02316 1.39844,-1.53516 z"
         id="path5506"
         inkscape:connector-curvature="0" /><path
         style="clip-rule:evenodd;opacity:1;fill:#406325;fill-opacity:1;fill-rule:nonzero;stroke:#000000;stroke-opacity:1"
         d="m 719.87699,188.51564 c 4.839,5.189 5.27285,25.18382 0.46485,31.75782 -6.425,8.786 -13.73485,16.61734 -26.08985,17.90234 -0.968,-2.581 -2.28918,-4.96647 -2.61718,-7.48047 -0.154,-1.184 1.35506,-2.91904 2.53906,-3.87304 2.791,-2.246 5.78487,-4.25699 8.79687,-6.20899 3.495,-2.264 4.25122,-5.84698 4.32422,-9.45898 0.086,-4.268 -0.49244,-8.54922 -0.77344,-12.82422 -0.145,-2.213 0.0317,-3.61589 2.92774,-4.46289 3.715,-1.086 7.03173,-3.53757 10.42773,-5.35157 z"
         id="path5496"
         inkscape:connector-curvature="0" /><path
         style="clip-rule:evenodd;opacity:1;fill:#406325;fill-opacity:1;fill-rule:nonzero;stroke:#000000;stroke-opacity:1"
         d="m 702.22856,196.75197 c 6.395,12.987 -3.24911,26.05228 -13.03711,28.73828 -3.834,-8.966 -3.83399,-8.96548 0.16601,-11.02148 -1.583,-2.577 -3.14764,-5.12136 -4.80664,-7.81836 6.019,-3.37 11.68874,-6.54544 17.67774,-9.89844 z"
         id="path5494"
         inkscape:connector-curvature="0" /><path
         style="clip-rule:evenodd;opacity:1;fill:#ffffff;fill-opacity:1;fill-rule:nonzero;stroke:#000000;stroke-opacity:1"
         d="m 563.89652,206.46486 c 4.5137,0.066 8.96232,0.30783 13.38282,0.25196 1.857,6.137 1.57831,12.91212 9.07031,17.20312 -2.169,0.608 -3.26233,1.31385 -4.11133,1.08985 -8.023,-2.118 -16.14712,-3.99677 -23.95312,-6.75977 -5.811,-2.057 -11.19654,-5.31775 -17.64454,-8.46875 8.0325,-3.04875 15.73303,-3.4264 23.25586,-3.31641 z"
         id="path5492"
         inkscape:connector-curvature="0" /><path
         style="clip-rule:evenodd;opacity:1;fill:#406325;fill-opacity:1;fill-rule:nonzero;stroke:#000000;stroke-opacity:1"
         d="m 537.8516,210.77541 c 21.696,14.927 46.32019,17.39966 72.49219,20.09766 -1.949,0.982 -2.91823,1.65142 -3.99023,1.98242 -11.853,3.655 -23.85339,3.80378 -35.9004,1.17578 -5.128,-1.118 -10.46626,-1.93892 -15.19726,-4.04492 -5.748,-2.56 -11.23474,-5.96185 -16.30274,-9.71485 -3.287,-2.433 -1.65356,-6.31609 -1.10156,-9.49609 z"
         id="path5488"
         inkscape:connector-curvature="0" /><path
         style="clip-rule:evenodd;opacity:1;fill:#406325;fill-opacity:1;fill-rule:nonzero;stroke:#000000;stroke-opacity:1"
         d="m 678.24418,219.00393 c 3.74449,-0.0199 6.06219,2.15086 7.39063,7.41992 h -50.8086 v -5.35352 c 10.144,0 19.9491,0.14783 29.7461,-0.0762 3.629,-0.083 7.28265,-0.84667 10.84765,-1.63867 1.0215,-0.22688 1.96011,-0.34697 2.82422,-0.35156 z"
         id="path5482"
         inkscape:connector-curvature="0" /><path
         style="clip-rule:evenodd;opacity:1;fill:#406325;fill-opacity:1;fill-rule:nonzero;stroke:#000000;stroke-opacity:1"
         d="m 540.14262,223.81643 c 18.775,15.234 40.07037,15.37086 61.85937,14.13086 -10.157,10.275 -23.18853,9.88032 -36.01953,9.11132 -9.488,-0.569 -24.86184,-14.35018 -25.83984,-23.24218 z"
         id="path5480"
         inkscape:connector-curvature="0" /><path
         style="clip-rule:evenodd;opacity:1;fill:#ffffff;fill-opacity:1;fill-rule:nonzero;stroke:#000000;stroke-opacity:1"
         d="m 636.75981,230.27541 h 32.66211 c -1.58601,6.766 -1.07263,8.74994 3.60937,14.33594 -5.124,1.578 -33.78448,-9.58194 -36.27148,-14.33594 z"
         id="path5474"
         inkscape:connector-curvature="0" /><path
         style="clip-rule:evenodd;opacity:1;fill:#406325;fill-opacity:1;fill-rule:nonzero;stroke:#000000;stroke-opacity:1"
         d="m 640.86328,240.88667 c -0.52339,-1.59758 -1.04858,-3.19629 -1.76562,-5.38281 7.789,3.306 15.21264,6.87523 22.93164,9.61523 8.062,2.862 16.5249,3.39258 25.3789,2.01758 0,0 1.51447,-1.3353 2.06446,-2.45313 0.0433,-0.32533 0.0918,-0.67127 0.13672,-0.98828 0.12274,0.26675 0.0466,0.61567 -0.13672,0.98828 -0.66118,4.96508 -1.26028,10.72106 -5.82422,12.58399 -4.533,1.85 -10.415,0.39453 -16,0.39453 3.37,0.955 6.57017,1.863 9.70117,2.75 -2.677,3.89 -9.07927,5.50562 -18.57227,4.39062 -1.216,-5.84 -2.07346,-11.93223 -3.85546,-17.74023 -1.029,-3.355 -4.55744,-4.15045 -8.02344,-4.43945 -2.04472,-0.1704 -4.02674,-1.1191 -6.03516,-1.73633 0.009,0.0266 0.0206,0.0632 -0.0312,0.0293 -0.0299,-0.0515 5.5e-4,-0.0387 0.0312,-0.0293 z"
         id="path5737"
         inkscape:connector-curvature="0" /><path
         style="clip-rule:evenodd;opacity:1;fill:#8b9e6c;fill-opacity:1;fill-rule:nonzero;stroke:#000000;stroke-opacity:1"
         d="m 640.77148,240.96647 c -0.20384,5.02481 4.2052,3.48048 6.67579,4.28515 2.834,0.926 5.62265,1.55614 4.97265,5.24414 -0.293,1.669 -1.26026,3.90793 -2.57226,4.54493 -1.874,0.909 -4.32782,0.65857 -5.50782,-1.98243 -0.387,-0.868 -1.1587,-1.56542 -1.0957,-1.48242 -4.275,1.734 -7.97061,3.49858 -11.84961,4.64258 -1.112,0.328 -3.64386,-0.81998 -4.00586,-1.83398 -2.142,-6.002 -6.11178,-8.08549 -12.30078,-7.27149 -3.19,0.419 -9.35292,-3.93744 -9.29492,-6.27344 0.04,-1.603 0.7483,-4.33264 1.6543,-4.55664 1.62062,-0.40125 3.6489,-0.8321 5.38085,-0.7832 V 235.5 c 1.03918,0.0293 1.97111,0.23192 2.64649,0.7168 4.131,2.97 7.91848,1.8514 11.77148,0.5664 6.605,-2.204 8.19761,-1.83759 12.34961,3.94141 0.17178,0.23884 0.41858,0.72922 0.85537,0.77804 0.002,-0.0395 -0.44947,-0.32511 -0.235,-0.20826 0.17637,0.15117 0.59411,-0.32292 0.55541,-0.32792 z"
         id="path5472"
         inkscape:connector-curvature="0" /><path
         style="clip-rule:evenodd;opacity:1;fill:#8b9e6c;fill-opacity:1;fill-rule:nonzero;stroke:#000000;stroke-opacity:1"
         d="m 684.74219,262.36133 c 0.79387,-0.0244 1.73601,0.20923 2.10351,0.64648 6.703,7.98 7.69107,19.49005 1.41407,27.49805 -3.537,4.513 -8.58744,7.88816 -13.14844,11.53516 -3.732,2.985 -7.57827,5.91064 -11.69727,8.30664 -3.243,1.887 -6.93786,3.0405 -10.50586,4.3125 -4.756,1.696 -9.67851,2.95684 -14.35351,4.83984 -4.954,1.996 -9.70019,4.50355 -15.11719,7.06055 -1.132,-4.739 -0.52236,-6.21642 3.43164,-7.98243 6.58,-2.94299 14.10427,-4.6972 18.94727,-11.0332 2.723,-3.564 6.71432,-6.20009 9.23632,-9.87109 6.082,-8.849 8.54371,-18.55835 4.47071,-29.27735 4.21,-0.497 8.21319,-0.56653 11.99218,-1.51953 4.26701,-1.076 8.30882,-3.02129 12.50782,-4.40429 0.205,-0.0675 0.45412,-0.10319 0.71875,-0.11133 z"
         id="path5466"
         inkscape:connector-curvature="0" /><path
         style="clip-rule:evenodd;opacity:1;fill:#939598;fill-opacity:1;fill-rule:nonzero;stroke:#000000;stroke-opacity:1"
         d="m 368.50199,166.40432 c 2.142,2.294 3.55991,4.61842 5.62891,5.85742 4.162,2.491 8.54506,4.70909 13.78906,3.87109 1.983,-0.316 3.32024,0.0791 4.74024,2.58008 5.551,9.773 10.97903,19.744 19.45703,27.5 1.749,1.6 3.29903,3.41969 5.45703,5.67969 -0.767,0.521 -1.82938,1.57873 -3.10938,2.05273 -4.389,1.627 -8.97367,2.77033 -13.26367,4.61133 -8.376,3.595 -16.74153,1.70298 -24.76953,-0.41602 -6.114,-1.614 -11.74786,-5.11207 -17.50586,-7.95507 -1.058,-0.523 -2.10155,-1.7956 -2.43555,-2.9336 -1.221,-4.147 -2.13826,-8.38403 -3.32226,-13.20703 12.361,4.147 24.78191,9.85086 38.12891,3.88086 -16.15,-6.03 -23.65893,-21.10248 -22.79493,-31.52148 z"
         id="path5500"
         inkscape:connector-curvature="0" /><path
         style="clip-rule:evenodd;opacity:1;fill:#406325;fill-opacity:1;fill-rule:nonzero;stroke:#000000;stroke-opacity:1"
         d="m 552.43363,185.05861 c 2.63658,0.10313 5.27461,1.67305 7.56836,2.63868 8.693,3.658 16.90863,8.43631 25.51563,12.32031 3.534,1.595 7.33297,2.40448 9.54297,7.02148 -5.934,-0.458 -11.31711,0.037 -16.03711,-1.50195 -4.345,-1.419 -8.44272,-2.77459 -13.01172,-2.43359 -5.174,0.386 -10.38977,0.47751 -15.50977,1.22851 -4.295,0.631 -8.48245,2.02402 -13.56445,3.29102 2.18,-8.739 5.32817,-15.4518 10.82617,-20.7168 1.50638,-1.44338 3.08798,-1.90953 4.66992,-1.84766 z"
         id="path5498"
         inkscape:connector-curvature="0" /><path
         style="clip-rule:evenodd;opacity:1;fill:#ffffff;fill-opacity:1;fill-rule:nonzero;stroke:#000000;stroke-opacity:1"
         d="m 601.76762,209.6719 c 2.159,0.121 4.90511,1.10417 7.41211,3.57617 -0.578,5.755 -3.46036,5.13453 -5.19336,5.76953 -2.592,0.948 -6.63078,-2.62467 -6.17578,-5.51367 0.241,-1.536 2.64503,-3.90604 3.95703,-3.83203 z"
         id="path5490"
         inkscape:connector-curvature="0" /><path
         style="clip-rule:evenodd;opacity:1;fill:#939598;fill-opacity:1;fill-rule:nonzero;stroke:#000000;stroke-opacity:1"
         d="m 359.06645,213.03908 c 8.234,3.594 14.81204,7.29864 21.87304,9.30664 6.723,1.914 13.85697,1.70967 20.91797,-0.11132 5.637,-1.453 10.94316,-3.23891 15.53516,-6.87891 2.676,-2.121 4.77229,-1.03702 6.5293,1.33398 1.22499,1.653 2.36306,3.37002 3.78906,5.41602 -6.222,5.092 -13.14494,11.38462 -23.08594,11.51562 -7.792,0.103 -15.68442,0.1028 -23.35742,-1.0332 -5.314,-0.787 -11.23908,-2.49555 -15.20508,-5.81055 -3.451,-2.884 -4.53909,-8.59628 -6.99609,-13.73828 z"
         id="path5486"
         inkscape:connector-curvature="0" /><path
         style="clip-rule:evenodd;opacity:1;fill:#8b9e6c;fill-opacity:1;fill-rule:nonzero;stroke:#000000;stroke-opacity:1"
         d="m 614.13676,216.02541 c 5.524,1.746 11.14198,3.52125 16.70898,5.28125 0.615,3.944 1.23107,7.88803 1.78907,11.45703 -4.268,1.126 -8.38624,2.21178 -12.99024,3.42578 -2.049,-1.103 -5.1007,-2.74542 -8.0957,-4.35742 3.18,-4.39 10.19026,-5.98265 15.07226,-1.97265 -0.59,-1.95501 -0.81886,-3.6061 -1.13086,-3.6211 -3.654,-0.181 -7.31951,-0.11523 -11.35351,-0.11523 z"
         id="path5484"
         inkscape:connector-curvature="0" /><path
         style="clip-rule:evenodd;opacity:1;fill:#939598;fill-opacity:1;fill-rule:nonzero;stroke:#000000;stroke-opacity:1"
         d="m 431.72856,224.54104 c 3.06317,-0.01 6.13885,1.33812 7.38086,3.94531 0.477,1.003 0.56735,2.92947 -0.0566,3.60547 -5.085,5.502 -10.41865,10.7744 -15.59765,16.1914 -1.981,2.072 -4.25639,4.08436 -5.52539,6.56836 -2.491,4.877 -6.20305,3.38164 -9.49805,2.05664 -5.515,-2.218 -10.70036,-5.24625 -16.19336,-7.53125 -3.996,-1.661 -8.42761,-2.31151 -12.34961,-4.10351 -2.428,-1.109 -4.43826,-3.351 -6.32226,-5.375 -2.221,-2.388 -4.10382,-5.09221 -6.13282,-7.65821 0.174,-0.376 0.34844,-0.75 0.52344,-1.125 2.79,1.048 5.71066,1.84236 8.34766,3.19336 8.554,4.385 17.72339,4.84425 26.77539,3.28125 5.901,-1.019 11.53681,-3.84251 17.13281,-6.22851 2.008,-0.856 3.77572,-2.60311 5.26172,-4.28711 1.49756,-1.69663 3.87144,-2.52556 6.25391,-2.5332 z"
         id="path5478"
         inkscape:connector-curvature="0" /><path
         style="clip-rule:evenodd;opacity:1;fill:#ffffff;fill-opacity:1;fill-rule:nonzero;stroke:#000000;stroke-opacity:1"
         d="m 687.09379,230.07424 c 2.25321,0.0714 2.59306,2.17947 3.00781,5.10547 -0.492,1.01 -1.4589,2.99672 -3.6289,3.01172 -3.135,-0.015 -4.09829,-2.00104 -4.23828,-5.58203 1.25099,-0.84501 2.41048,-2.1815 3.77148,-2.4375 0.40575,-0.0765 0.766,-0.10786 1.08789,-0.0977 z"
         id="path5476"
         inkscape:connector-curvature="0" /><path
         style="clip-rule:evenodd;opacity:1;fill:#8b9e6c;fill-opacity:1;fill-rule:nonzero;stroke:#000000;stroke-opacity:1"
         d="m 602.0332,241.99023 c 1.075,0.004 2.12844,0.70235 3.17188,2.20704 2.966,4.276 6.39089,8.06725 12.71289,5.78125 3.007,-1.087 5.00683,0.60106 5.79883,3.78906 1.154,4.65 5.24109,6.7472 9.49609,4.9082 2.314,-1.001 4.45297,-2.41689 6.79297,-3.33789 1.038,-0.409 2.46255,-0.33614 3.56055,0.006 3.287,1.024 6.49892,2.28892 10.66992,3.79492 1.148,7.1 5.4164,15.06374 1.1914,23.67774 -0.186,0.379 -0.14921,0.87245 -0.19921,1.31445 -0.764,6.73 -0.76221,6.48862 -7.78321,6.39062 -3.586,-0.05 -7.1865,0.93958 -11.1875,1.51758 0,-7.493 9.6e-4,-14.81567 0.002,-22.13867 -0.351,-0.007 -0.70174,-0.0145 -1.05274,-0.0215 -0.892,7.592 -1.78183,15.18339 -2.67383,22.77539 -0.432,0.167 -0.86487,0.333 -1.29687,0.5 -2.559,-2.553 -4.90456,-5.37671 -7.72656,-7.59571 -4.178,-3.287 -4.58764,-7.4825 -4.43165,-12.3125 0.12401,-3.825 -0.69765,-7.67948 -1.09765,-11.52148 -0.402,0.023 -0.80603,0.0454 -1.20703,0.0684 v 17.55859 c -3.527,-0.614 -6.67541,-0.65598 -9.31641,-1.83398 -1.358,-0.605 -2.05928,-3.15971 -2.61328,-4.9707 -0.788,-2.58001 1.48798,-6.12177 -2.66602,-7.88477 v 10.0332 c -8.352,0.632 -16.14475,1.21985 -24.34375,1.83985 0.513,-1.143 0.91149,-3.4615 2.27149,-4.8125 6.366,-6.327 10.96995,-13.62916 14.12695,-22.03516 0.934,-2.488 3.19405,-4.63605 5.24805,-6.49805 0.86669,-0.78531 1.71662,-1.20252 2.55273,-1.19922 z"
         id="path5468"
         inkscape:connector-curvature="0" /></g><g
       inkscape:groupmode="layer"
       id="layer10"
       inkscape:label="mouth open"
       style="display:none"
       sodipodi:insensitive="true"><path
         inkscape:connector-curvature="0"
         id="path6585"
         d="m 563.29297,353.1055 c 10.284,-3.432 23.38144,5.63451 33.14844,6.10351 1.795,0.086 6.73148,0.61061 13.52148,-1.6504 2.639,-0.711 5.49654,-4.63192 6.47354,-5.17692 2.482,-1.835 6.51265,-9.88237 5.85265,-15.88937 2.55665,-5.83409 5.07607,-5.69998 9.22007,-8.30198 4.35401,-3.32765 4.4053,-2.1995 7.25409,-3.36118 21.10567,-8.60652 17.09156,-18.91978 20.16254,-24.24516 3.16053,-9.01514 3.40368,-11.46059 2.52546,-17.97156 -1.42993,-10.60122 -9.61157,11.94404 -7.68168,11.11806 -7.39672,-0.96386 -14.99249,2.82579 -21.86791,1.32478 -6.16375,-1.34564 -9.03961,-8.71309 -13.53875,-12.5992 -9.28227,-8.01753 -41.77241,-2.07566 -40.52888,-5.92076"
         style="clip-rule:evenodd;display:inline;opacity:1;fill:#000000;fill-opacity:1;fill-rule:nonzero;stroke:#000000;stroke-opacity:1"
         sodipodi:nodetypes="ccccccscscssc" /><path
         inkscape:connector-curvature="0"
         d="m 381.79496,57.863301 c 1.65,2.003 3.3666,3.956485 4.9336,6.021485 2.39,3.151 4.42668,6.602296 7.05468,9.529296 6.306,7.018 12.51164,14.18936 19.43164,20.56836 6.192,5.708 13.30666,10.411328 19.97266,15.611328 3.4,2.652 6.69345,5.44086 10.06445,8.13086 6.709,5.355 13.66085,10.43252 20.08985,16.10351 5.29,4.66701 9.95173,10.04336 14.92773,15.06836 1.642,1.657 3.41175,3.18374 5.09375,4.80274 7.241,6.971 11.3755,16.00322 16.1875,24.57422 0.821,1.463 1.17486,3.18734 2.00586,5.52734 8.453,-19.155 17.39786,-21.61012 29.13086,-24.57812 -1.664,-2.277 -2.87061,-4.6585 -4.72461,-6.3125 -3.897,-3.473 -7.99553,-6.76091 -12.26953,-9.75391 -4.331,-3.032 -8.82806,-5.91502 -13.53906,-8.29102 -2.939,-1.482 -6.36721,-2.36935 -9.65821,-2.69335 -4.781,-0.469 -9.64398,-0.34307 -14.45898,-0.16407 -2.488,0.092 -8.94236,-3.07512 -8.69336,-5.20312 0.237,-2.024 1.58967,-4.30561 3.13867,-5.72461 7.819,-7.165 15.55641,-14.48041 23.94141,-20.94141 5.116,-3.940998 11.35822,-6.415889 17.07422,-9.587889 1.563,-0.867 2.93998,-2.158484 4.58398,-2.771484 10.528,-3.93 21.35034,-7.445953 32.65235,-6.001953 7.997,1.022 16.05234,3.215047 23.52734,6.248047 7.42,3.01 14.67316,7.036812 21.03516,11.882812 6.625,5.045997 12.15359,11.550527 18.05859,17.519527 4.82,4.872 9.62736,9.77 14.19336,14.875 8.582,9.593 11.92801,20.94394 10.79101,33.71094 -0.184,2.079 -0.0254,4.19016 -0.0254,6.28516 0.49,0.064 0.97975,0.12545 1.46875,0.18945 0.674,-5.879 1.34844,-11.75581 2.02344,-17.63281 0.41,-0.05 0.82142,-0.10234 1.23242,-0.15235 3.992,8.30201 7.98161,16.6041 11.47461,23.8711 2.546,-0.553 4.82346,-1.81497 6.56445,-1.29297 7.309,2.193 14.55086,2.90648 22.13086,1.64648 6.105,-1.015 12.34319,-1.20037 18.49219,-1.98437 9.769,-1.246 19.47925,-3.15402 29.28125,-3.91602 11.336,-0.881 22.80163,-2.11698 33.89063,2.29102 3.439,1.367 6.89558,2.05059 8.64257,6.05859 0.51701,1.185 3.30069,1.37893 5.30469,2.91993 -21.53,-0.24301 -36.86522,10.16042 -49.19922,27.98242 -0.217,-2.344 -0.31745,-3.5461 -0.43945,-4.7461 -0.613,-6.001 -1.35009,-11.99376 -1.74609,-18.00976 -0.073,-1.125 1.03262,-3.20296 1.89062,-3.37696 7.167,-1.453 14.40728,-2.54164 21.61328,-3.80664 0.908,-0.159 1.73505,-0.98143 2.62305,-1.02343 2.659,-0.125 5.5625,-0.67304 7.9375,0.16797 3.034,1.074 5.40377,1.78837 8.13477,-2.39063 -7.629,-0.392 -14.73243,-1.67311 -21.60743,-0.91211 -12.437,1.377 -23.89028,6.34994 -35.11328,11.83594 -7.739,3.783 -15.7884,6.93186 -23.6914,10.38086 -4.022,1.756 -7.27153,1.51161 -10.51954,-2.15039 -4.036,-4.55 -9.28126,-7.67489 -15.19726,-9.46289 -0.414,-0.126 -0.90184,-0.0922 -1.33984,-0.0312 -0.405,0.057 -0.79044,0.24903 -2.14844,0.70703 11.408,6.038 21.1877,12.92961 26.2207,24.34961 -8.565,1.604 -16.46714,3.67292 -24.49414,4.41992 -8.011,0.745 -16.143,0.16406 -24.625,0.16406 1.962,-9.154 6.32648,-15.52319 14.89648,-18.86719 -4.905,-1.5 -11.05568,1.09354 -12.80468,5.26954 -1.632,3.89699 -2.9203,7.94106 -4.6543,11.78906 -0.37,0.82 -2.00655,1.07003 -3.06055,1.58203 -0.201,-0.969 -0.84715,-2.12186 -0.53515,-2.88086 3.386,-8.242 4.59312,-16.88878 2.57812,-25.42578 -1.048,-4.44 -3.70078,-9.36772 -7.17578,-12.13672 -3.984,-3.176 -4.73756,-6.86999 -5.10156,-10.95899 -1.037,-11.59899 -5.59708,-21.13628 -14.83008,-28.48828 -2.78,-2.213 -5.08416,-4.67648 -9.03516,-4.64648 -0.763,0.006 -1.85076,-1.8512 -2.25976,-3.0332 -1.935,-5.575 -3.36685,-11.34397 -5.58984,-16.79297 -2.284,-5.599 -7.11055,-8.62397 -12.93555,-10.54297 2.699,3.095 5.2729,5.9632 7.7539,8.9082 4.465,5.298 6.54957,11.44419 6.85157,18.36719 0.059,1.371 1.46793,3.03841 2.71093,3.94141 4.052,2.945 8.89829,5.0219 12.36329,8.5039 5.127,5.155 8.85215,11.44727 10.41015,18.82227 1.403,6.644 2.72319,12.83204 7.74219,18.62304 6.019,6.945 6.52398,16.69215 5.45898,25.99415 -0.302,2.63099 -0.62192,5.25817 -1.04492,8.82617 -3.422,-0.772 -6.98353,-1.00372 -10.01953,-2.38672 -5.725,-2.609 -11.17945,-5.82753 -16.68945,-8.89453 -4.706,-2.621 -9.36938,-5.32357 -13.98438,-8.10157 -2.8,-1.686 -5.32942,-3.87203 -8.23242,-5.33203 -6.758,-3.398 -13.53173,-6.84118 -20.55273,-9.61718 -7.764,-3.07 -15.88129,-2.92266 -23.73829,-0.0977 -1.76699,0.634 -3.01789,2.70387 -4.96289,4.54687 6.02,-0.816 11.23963,-3.75046 16.76563,-0.73046 -2.708,3.662 -5.6428,6.81714 -7.5918,10.49414 -1.93,3.64 -2.86595,7.80629 -4.25195,11.77929 -5.673,-0.459 -12.08124,-0.97904 -18.49023,-1.49804 -0.075,0.5 -0.14866,1 -0.22266,1.5 4.077,0.724 8.15316,1.44737 13.28516,2.35937 -4.982,1.976 -9.24577,3.66933 -13.50977,5.36133 0.108,0.431 0.21917,0.86001 0.32617,1.29102 3.286,-0.57 6.62984,-0.9214 9.83984,-1.7754 3.13701,-0.835 6.13729,-2.18668 9.86329,-3.55468 -0.79,9.37 1.85618,16.97679 6.24218,24.09179 6.564,10.649 16.41622,15.30852 28.57422,15.10352 6.776,-0.115 13.53374,-1.11302 20.30274,-1.66602 1.004,-0.082 2.02951,0.0953 3.85351,0.19727 -23.81,33.617 -57.01893,52.29614 -94.46094,65.49414 2.505,-0.165 5.03391,-0.15897 7.50391,-0.54297 2.436,-0.378 4.89417,-0.93397 7.20117,-1.79297 7.934,-2.954 15.92807,-5.79593 23.66407,-9.21094 7.72,-3.408 15.2892,-7.22198 22.6582,-11.33398 2.798,-1.56 4.77662,-4.53794 7.26562,-6.71094 3.95,-3.448 8.53322,-5.63717 13.82422,-5.95117 8.649,-0.514 17.65189,9.98561 26.21289,14.09961 -0.98,1.895 -1.85745,3.59506 -3.31445,6.41406 8.347,-7.029 11.11966,-5.22404 16.97266,0.62696 0.536,0.537 0.0254,2.8872 -0.72657,3.7832 -1.495,1.778 -3.49801,3.12925 -5.29101,4.65625 0.238,0.361 0.47779,0.72298 0.71679,1.08398 1.80701,-1.166 3.77677,-2.14406 5.38477,-3.53906 3.05,-2.645 5.15697,-2.50273 7.29297,1.19727 0.598,1.037 3.04025,1.57715 4.53125,1.41015 2.736,-0.306 5.36275,-1.48565 8.09375,-1.97265 3.024,-0.539 6.10987,-0.70807 9.17187,-1.03907 0.384,0.331 0.7693,0.66024 1.1543,0.99024 -1.785,2.653 -3.14364,5.76709 -5.43164,7.87109 -6.799,6.249 -14.13319,11.92764 -22.49219,15.93164 -1.97938,1.71151 -5.09052,7.66352 -5.0957,8.04297 0.09,6.326 -4.87623,14.17181 -12.94623,15.39281 -6.11815,1.31856 -18.83577,1.77413 -25.50246,-15.01747 -0.481,-0.287 -1.09411,-0.39947 -1.66211,-0.48047 -0.429,-0.061 -0.88623,0.0576 -2.36523,0.1836 2.817,2.417 0.19908,1.09705 2.34908,3.15005 0.897,0.857 1.9052,2.12017 1.9082,3.20117 10e-4,0.652 -1.77956,1.41836 -2.85156,1.94336 -4.049,1.98 -8.04947,4.10648 -12.23047,5.77148 -9.854,3.922 -19.82727,7.54178 -29.69727,11.42578 -3.853,1.517 -7.48951,3.58932 -11.35351,5.07032 -2.076,0.796 -4.42614,0.87767 -7.24414,1.38867 -2.39,-3.584 -5.36627,-7.75525 -7.94727,-12.15625 -0.542,-0.924 0.3706,-2.69949 0.55859,-3.77149 12.973,-2.814 24.53349,-7.97223 35.27149,-14.99023 -0.161,-0.423 -0.32042,-0.84458 -0.48242,-1.26758 -5.182,1.743 -10.37597,3.44928 -15.54297,5.23828 -5.661,1.96 -11.29722,3.99933 -16.94922,5.98633 -0.269,0.094 -0.68281,-0.0991 -0.88281,0.0449 -7.387,5.331 -10.08858,-1.64982 -14.89258,-5.54883 8.218,-4.46399 15.88764,-8.62892 23.55664,-12.79492 -0.306,-0.686 -0.60906,-1.37064 -0.91406,-2.05664 -3.273,1.202 -6.62588,2.22344 -9.79688,3.64844 -4.687,2.106 -8.90412,3.49958 -13.70312,5.26758 -1.719,0.63405 -4.99697,1.27148 -6.41797,0.0215 -6.662,-5.858 -13.06903,-12.01864 -19.33203,-18.30664 -1.787,-1.793 -3.1926,-4.227 -4.0586,-6.625 -3.391,-9.383 -9.02943,-17.28348 -15.02343,-25.14648 -5.789,-7.594 -13.50254,-12.8851 -20.51954,-18.9961 -2.65,-2.308 -6.31359,-3.57857 -9.68359,-4.89257 -2.829,-1.103 -1.981,-2.1963 -0.625,-3.7793 6.863,-8.016 13.69434,-16.05861 20.52735,-24.09961 1.241,-1.461 2.44875,-2.95164 3.46874,-4.18164 4.799,2.267 9.30455,4.39353 13.81055,6.51953 0.307,-0.633 0.61488,-1.26639 0.92188,-1.90039 -2.585,-1.377 -5.45813,-2.39336 -7.70313,-4.19336 -8.111,-6.502 -16.43419,-12.8335 -23.86719,-20.0625 -6.693,-6.509 -12.96914,-13.66556 -18.24414,-21.35156 -5.487,-7.996 -9.96772,-16.7696 -14.13671,-25.5586 -5.10201,-10.757 -9.58433,-21.76661 -11.98633,-33.59961 -2.083,-10.263 -5.26511,-20.30117 -7.91211,-30.45117 -0.239,-0.913998 -0.11711,-1.923669 -0.16211,-2.888669 0.532,-0.129 1.0637,-0.258719 1.5957,-0.386719 1.617,4.368998 3.18933,8.757468 4.86133,13.105468 3.026,7.868 5.87409,15.81811 9.24609,23.53711 2.881,6.596 6.16764,13.04017 9.68164,19.32617 4.675,8.359 9.32668,16.73841 16.01368,23.81641 5.469,5.789 10.37923,12.10205 15.74023,17.99805 1.646,1.809 3.93652,3.04551 5.97852,4.47851 9.174,6.433 18.31956,12.83894 29.35156,15.96094 4.004,1.133 7.66008,3.44908 11.58008,4.95508 1.239,0.476 2.81465,0.0723 4.09765,0.0723 0,-6.028 -0.0161,-11.64376 0.004,-17.25976 0.03,-8.886 -3.22988,-16.87914 -7.42188,-24.36914 -3.978,-7.108 -8.47314,-14.01879 -13.49414,-20.42579 -4.169,-5.32 -9.32914,-9.88884 -14.24414,-14.58984 -4.007,-3.833 -8.39931,-7.26259 -12.44531,-11.05859 -6.38,-5.988 -12.84394,-11.9143 -18.83594,-18.2793 -4.702,-4.994 -8.91725,-10.48328 -13.03125,-15.988281 -4.285,-5.733 -8.63562,-11.497985 -12.14062,-17.708985 -4.016,-7.116 -7.13358,-14.736671 -10.64258,-22.138672 0.554,-0.380999 1.11006,-0.763531 1.66406,-1.144531 z"
         style="clip-rule:evenodd;display:inline;opacity:1;fill:#8b9e6c;fill-opacity:1;fill-rule:evenodd;stroke:#000000;stroke-opacity:1"
         id="path6582"
         sodipodi:nodetypes="cccccccccccccccccccccccccccccccccccccccccccccccccccccccccccccccccccccccccccccccccccccccccccccccccccccccccccccccccccccccccccccccccccccccccccccccccccccccccccccccccccccccccccccccccccccccc" /></g><g
       style="display:inline"
       inkscape:label="eyelids squint"
       id="g6604"
       inkscape:groupmode="layer"><g
         id="g6594"><path
           style="clip-rule:evenodd;fill:#406325;fill-rule:evenodd;stroke:#000000;stroke-width:2;stroke-miterlimit:4;stroke-dasharray:none;stroke-opacity:1"
           inkscape:connector-curvature="0"
           d="m 604.35341,209.55578 c -9.1645,-4.60805 -12.77521,-8.13267 -17.4212,-10.42267 -7.72312,-3.884 -15.40878,-7.95388 -24.10178,-11.61188 -3.67,-1.545 -11.04943,-4.46423 -15.06643,-0.61523 -5.498,5.265 -9.02146,10.47807 -10.82646,20.71707 10.76949,-0.98796 22.05451,-0.88166 26.95898,-1.15821 9.97384,0.9001 15.826,0.0188 25.24812,1.64225 5.49632,0.94704 14.77313,4.49576 20.03509,5.14096 z"
           id="path6588"
           sodipodi:nodetypes="ccccccscc" /><path
           style="clip-rule:evenodd;fill:#406325;fill-rule:evenodd"
           inkscape:connector-curvature="0"
           d="m 640.896,240.979 c -0.01,-0.031 -0.021,-0.063 -0.031,-0.094 -0.03,-0.009 -0.062,-0.021 -0.093,-0.03 z"
           id="path6590" /><path
           style="clip-rule:evenodd;fill:#406325;fill-rule:evenodd;stroke:#000000;stroke-width:2;stroke-miterlimit:4;stroke-dasharray:none;stroke-opacity:1"
           inkscape:connector-curvature="0"
           d="m 675.419,219.356 c -3.565,0.792 -7.217,1.555 -10.846,1.638 -9.797,0.224 -19.602,0.077 -29.746,0.077 l 2.65165,12.60184 c 12.48371,-2.93038 19.68274,-3.69315 29.67658,-4.24264 l 19.93856,0.644 c -1.635,-6.486 -6.22679,-11.9282 -11.67479,-10.7182 z"
           id="path6592"
           sodipodi:nodetypes="ccccccc" /></g><path
         inkscape:connector-curvature="0"
         id="path6606"
         d="m 537.8516,210.77541 c 13.60636,-1.56188 23.05435,-0.36675 31.78589,0.88758 4.68418,0.67291 10.97019,3.02237 14.99584,4.12837 6.55451,1.80078 12.89182,6.9115 22.23337,4.33973 3.94914,-1.08721 1.11473,-2.74589 6.34841,-1.68264 -2.199,2.107 -5.78955,14.07604 -6.86155,14.40704 -11.853,3.655 -23.85339,3.80378 -35.9004,1.17578 -5.128,-1.118 -10.46626,-1.93892 -15.19726,-4.04492 -5.748,-2.56 -11.23474,-5.96185 -16.30274,-9.71485 -3.287,-2.433 -1.65356,-6.31609 -1.10156,-9.49609 z"
         style="clip-rule:evenodd;display:inline;opacity:1;fill:#406325;fill-opacity:1;fill-rule:nonzero;stroke:#000000;stroke-opacity:1"
         sodipodi:nodetypes="cssscccccc" /><path
         inkscape:connector-curvature="0"
         id="path6608"
         d="m 640.86328,240.88667 c -0.52339,-1.59758 -1.04858,-3.19629 -1.76562,-5.38281 17.13428,-4.77528 39.80859,6.15719 50.43186,5.6224 0,0 -0.60685,4.67511 -0.0569,3.55728 0.0433,-0.32533 0.0918,-0.67127 0.13672,-0.98828 0.12274,0.26675 0.0466,0.61567 -0.13672,0.98828 -0.66118,4.96508 -1.26028,10.72106 -5.82422,12.58399 -4.533,1.85 -10.415,0.39453 -16,0.39453 3.37,0.955 6.57017,1.863 9.70117,2.75 -2.677,3.89 -9.07927,5.50562 -18.57227,4.39062 -1.216,-5.84 -2.07346,-11.93223 -3.85546,-17.74023 -1.029,-3.355 -4.55744,-4.15045 -8.02344,-4.43945 -2.04472,-0.1704 -4.02674,-1.1191 -6.03516,-1.73633 0.009,0.0266 0.0206,0.0632 -0.0312,0.0293 -0.0299,-0.0515 5.5e-4,-0.0387 0.0312,-0.0293 z"
         style="clip-rule:evenodd;display:inline;opacity:1;fill:#406325;fill-opacity:1;fill-rule:nonzero;stroke:#000000;stroke-opacity:1"
         sodipodi:nodetypes="cccccccccccccccc" /></g><g
       inkscape:groupmode="layer"
       id="layer1"
       inkscape:label="eyelids down"
       style="display:none"
       sodipodi:insensitive="true"><g
         id="g3932"><path
           id="path3926"
           d="m 640.896,240.979 c -0.01,-0.031 -0.021,-0.063 -0.031,-0.094 -0.03,-0.009 -0.062,-0.021 -0.093,-0.03 z"
           inkscape:connector-curvature="0"
           style="clip-rule:evenodd;fill:#406325;fill-rule:evenodd" /><path
           id="path3930"
           d="m 675.419,219.356 c -3.565,0.792 -7.217,1.555 -10.846,1.638 -9.797,0.224 -19.602,0.077 -29.746,0.077 0,1.869 0,3.866 0,5.354 16.868,0 33.729,0 50.808,0 -1.635,-6.486 -4.768,-8.279 -10.216,-7.069 z"
           inkscape:connector-curvature="0"
           style="clip-rule:evenodd;fill:#406325;fill-rule:evenodd" /></g><g
         id="g3949"><path
           style="clip-rule:evenodd;fill:#406325;fill-rule:evenodd"
           inkscape:connector-curvature="0"
           d="m 610.84536,228.28091 c 1.03525,-3.21216 -0.48916,-8.0592 -1.66563,-15.03284 -4.64413,-3.49522 -5.73273,-4.63683 -11.1151,-6.69364 -5.82823,-2.95714 -8.36552,-4.12536 -12.89929,-5.60879 -8.607,-3.884 -13.99546,-7.6451 -22.68846,-11.3031 -3.67,-1.545 -7.5139,1.19263 -11.5309,5.04163 -5.498,5.265 -8.19287,1.59375 -13.28969,12.1889 5.96544,4.69619 14.07118,10.01731 26.3171,14.24521 10.64148,3.88703 41.69797,7.54863 46.87197,7.16263 z"
           id="path3943"
           sodipodi:nodetypes="ccccccccc" /><path
           style="clip-rule:evenodd;fill:#406325;fill-rule:evenodd"
           inkscape:connector-curvature="0"
           d="m 640.896,240.979 c -0.01,-0.031 -0.021,-0.063 -0.031,-0.094 -0.03,-0.009 -0.062,-0.021 -0.093,-0.03 z"
           id="path3945" /><path
           style="clip-rule:evenodd;fill:#406325;fill-rule:evenodd"
           inkscape:connector-curvature="0"
           d="m 675.419,219.356 c -3.565,0.792 -7.217,1.555 -10.846,1.638 -9.797,0.224 -19.602,0.077 -29.746,0.077 l 0.15617,9.41444 c 16.81637,10.55075 39.04915,19.29536 54.62583,13.21056 4.67544,-7.26004 -4.25292,-28.17779 -14.19,-24.34 z"
           id="path3947"
           sodipodi:nodetypes="cccccc" /></g></g></g><g
     id="g3866"
     style="fill-rule:evenodd;opacity:1;stroke:#000000;stroke-opacity:1;fill:#000000;fill-opacity:0.39215687"><g
       id="g3864"
       style="fill-rule:evenodd;stroke:#000000;stroke-opacity:1;fill:#000000;fill-opacity:0.39215687"><path
         id="path3862"
         style="clip-rule:evenodd;fill:#000000;fill-opacity:1;fill-rule:evenodd;stroke:#000000;stroke-opacity:1"
         d="m 611.6875,741.2168 c 0.396,0.042 0.78859,0.0859 1.18359,0.1289 7.368,14.74 14.73435,29.47746 22.15235,44.31446 H 605.0957 c -1.546,-15.903 2.1248,-30.24136 6.5918,-44.44336 z m -47.37109,-91.62891 c 0,24.034 -9.6e-4,47.42159 -0.002,70.80859 0,19.193 -0.0398,38.38418 0.0332,57.57618 0.016,3.819 -0.76316,5.9575 -5.16016,4.0625 -1.028,-0.443 -2.36073,-0.22166 -3.55273,-0.22266 -11.246,-0.013 -22.49033,-0.008 -33.73633,-0.008 -0.6,0 -1.20083,-0.0241 -1.79883,0.006 -8.019,0.405 -8.01953,0.40579 -8.01953,-7.65821 v -57.57812 -4.72852 c -0.369,-0.051 -0.73742,-0.10134 -1.10742,-0.15234 -0.511,2.253 -1.10239,4.49267 -1.52539,6.76367 -3.555,19.096 -4.20618,38.38633 -3.57618,57.73633 0.134,4.102 0.78288,8.21776 1.54688,12.25976 0.9,4.765 0.12453,5.76543 -4.73047,5.98243 -11.293,0.504 -22.57314,1.29278 -33.86914,1.67578 -2.56,0.086 -5.146,-1.102 -7.75,-1.5 -0.655,-0.099 -1.41839,0.83719 -2.15039,0.86719 -2.356,0.095 -4.72908,0.089 -7.08008,-0.084 -1.054,-0.078 -2.06033,-0.89522 -3.11133,-0.94922 -12.846,-0.66 -25.69797,-1.18714 -38.54297,-1.86914 -5.186,-0.277 -10.35754,-0.84761 -16.31054,-1.34961 0.997,-1.212 1.73517,-2.35114 2.70117,-3.24414 6.999,-6.462 14.13987,-12.77498 21.04687,-19.33398 5.599,-5.316 11.45868,-10.48852 16.26368,-16.47852 7.041,-8.774 13.2295,-18.2339 19.8125,-27.3789 1.312,-1.821 2.94486,-3.42827 4.13085,-5.32227 6.85901,-10.96 13.88771,-21.82653 20.34571,-33.01953 5.114,-8.866 9.32167,-18.25053 14.38867,-27.14453 0.677,-1.187 4.29209,-1.6335 6.12109,-1.0625 6.904,2.157 13.66593,4.79129 20.41993,7.40429 8.927,3.452 17.78498,7.07616 26.70898,10.53516 0.666,0.258 2.021,0.064 2.375,-0.41797 1.587,-2.163 3.01984,-4.45392 4.33984,-6.79492 3.42,-6.065 6.74558,-12.18467 10.14258,-18.26367 0.179,-0.322 0.67049,-0.47119 1.64649,-1.11719 z m 17.12304,-46.56445 c 0.778,1.264 1.62141,2.02165 1.69141,2.84765 0.702,7.966 1.06331,15.96621 1.94531,23.90821 0.808,7.277 2.09905,14.50518 3.24805,21.74218 0.943,5.928 1.80173,11.8811 3.05273,17.7461 0.958,4.489 2.50075,8.85106 3.71875,13.28906 0.251,0.91 0.59996,2.07822 0.25196,2.82422 -5.645,12.099 -11.72032,24.01016 -16.94532,36.28516 -1.837,4.313 -1.86531,9.46834 -2.32031,14.27734 -0.545,5.763 -0.51595,11.57961 -1.00195,17.34961 -0.779,9.262 -1.70553,18.51119 -2.76953,27.74219 -0.138,1.202 -1.46638,2.2665 -2.35938,3.5625 -2.628,-1.876 -3.86898,-3.81738 -2.33398,-6.98438 0.537,-1.11 0.25486,-2.64337 0.25586,-3.98437 0.014,-11.134 -0.0776,-22.26935 0.0254,-33.40235 0.248,-27.063 0.5869,-54.1255 0.8789,-81.1875 0.036,-3.167 0.14657,-6.3439 -0.0234,-9.5039 -0.418,-7.807 1.06257,-15.07255 4.26757,-22.31055 3.321,-7.501 5.46097,-15.52417 8.41797,-24.20117 z m 7.73438,-20.2461 c 1.577,4.298 2.72936,7.52457 3.94336,10.72657 2.918,7.717 5.91734,15.40553 8.77734,23.14453 1.953,5.286 4.31038,10.52495 5.35938,16.00195 0.616,3.217 -0.93385,6.86664 -1.58985,10.30664 -1.947,10.204 -3.93423,20.40074 -6.11523,31.67774 -0.898,-1.672 -1.67392,-2.59939 -1.91992,-3.65039 -2.692,-11.50701 -5.33835,-23.0255 -7.90235,-34.5625 -0.542,-2.43501 -0.74048,-4.95341 -1.02148,-7.44141 -0.666,-5.866 -1.23855,-11.74152 -1.93555,-17.60352 -0.435,-3.643 -0.99969,-7.27048 -1.55469,-10.89648 -0.921,-6.018 0.60999,-11.43913 3.95899,-17.70313 z m 20.60742,-54.97265 c 1.375,6.989 2.31452,13.77889 4.10352,20.33789 2.103,7.706 4.97617,15.20059 7.45117,22.80859 0.889,2.736 1.87217,5.49046 2.32617,8.31445 1.425,8.859 2.00622,17.89976 4.07422,26.59376 2.03,8.52799 5.46436,16.72568 8.31836,25.05468 1.733,5.054 3.64661,10.04939 5.22461,15.15039 0.379,1.229 0.13376,2.98086 -0.49024,4.13086 -3.163,5.832 -6.87844,11.38289 -9.77344,17.33789 -4.21799,8.684 -8.01648,17.57857 -11.77148,26.47657 -2.421,5.735 -4.59875,11.58346 -6.59375,17.48046 -1.905,5.628 -3.51356,11.3628 -5.10156,17.0918 -1.547,5.583 -3.12721,11.1737 -4.28321,16.8457 -1.23199,6.043 -2.1571,12.16507 -2.9121,18.28907 -1.603,13.019 -3.39324,26.03156 -4.36524,39.10156 -0.688,9.25 -0.15183,18.58967 -0.17383,27.88867 -0.013,5.263 -0.5494,5.31514 -5.6914,4.61914 -4.397,-0.597 -8.93752,-0.12305 -14.97852,-0.12305 0.89,-15.05799 1.57381,-29.28823 2.63281,-43.49023 0.57,-7.636 1.29289,-15.32664 2.83789,-22.80664 1.751,-8.478 4.4268,-16.77052 6.8418,-25.10352 1.76,-6.068 3.75063,-12.07351 5.64063,-18.10351 0.436,-1.393 0.76179,-2.83406 1.34179,-4.16406 3.451,-7.91 6.81891,-15.86307 10.50391,-23.66407 2.44,-5.166 5.3955,-10.08553 8.0625,-15.14453 3.304,-6.268 6.55231,-12.56456 9.82031,-18.85156 0.135,-0.261 0.15942,-0.61978 0.35742,-0.80078 7.915,-7.212 3.39346,-15.60567 2.18946,-23.63867 -0.671,-4.484 -1.81414,-8.89591 -2.49414,-13.37891 -1.322,-8.727 -2.27296,-17.51489 -3.75196,-26.21289 -1.167,-6.874 -2.78034,-13.67884 -4.40234,-20.46484 -1.663,-6.952 -3.38827,-13.90314 -5.44727,-20.74414 -1.412,-4.689 -3.45259,-9.1853 -5.18359,-13.7793 -0.966,-2.565 -2.8723,-5.29255 -2.5293,-7.68555 0.337,-2.347 2.90125,-4.43419 4.65625,-6.49219 0.886,-1.037 2.14555,-1.75504 3.56055,-2.87304 z m 22.18164,-17.21875 c 0.327,0.211 0.65252,0.42181 0.97852,0.63281 -5.874,17.496 -9.44291,35.36808 -9.37891,53.83008 -0.399,0.151 -0.80217,0.30403 -1.20117,0.45703 -1.357,-4.053 -2.91272,-8.05283 -4.01172,-12.17383 -1.048,-3.936 -1.66863,-7.98886 -2.39063,-12.00586 -0.777,-4.328 -1.4961,-8.66862 -2.1621,-13.01562 -0.596,-3.902 0.48093,-6.47316 4.58593,-8.28516 3.736,-1.649 6.80146,-4.80286 10.18946,-7.25586 1.087,-0.788 2.25762,-1.45859 3.39062,-2.18359 z m 17.92773,-6.99219 c -4.74199,46.894 -2.35106,91.74639 15.96094,134.65039 -0.295,0.27 -0.59172,0.53764 -0.88672,0.80664 -1.978,-1.39 -4.01387,-2.70459 -5.92187,-4.18359 -4.119,-3.198 -8.21624,-6.42914 -12.24024,-9.74414 -4.076,-3.357 -8.17095,-6.70899 -12.00195,-10.33399 -1.147,-1.084 -1.74131,-3.0122 -2.07031,-4.6582 -1.859,-9.285 -4.29952,-18.53973 -5.10352,-27.92774 -0.784,-9.158 -0.38223,-18.51454 0.50977,-27.68554 0.801,-8.245 2.39003,-16.52652 4.70703,-24.47852 2.26,-7.762 5.55791,-15.28759 9.12891,-22.55859 0.909,-1.849 4.58296,-2.33972 7.91796,-3.88672 z m 34.28516,-4.02539 c 1.292,0.217 2.0667,0.36461 2.8457,0.47461 0.704,0.099 1.41224,0.15612 2.99024,0.32812 -0.833,3.967 -1.28445,7.74397 -2.43945,11.29297 -3.14,9.652 -6.53918,19.22025 -9.95118,28.78125 -0.383,1.072 -1.49843,1.88441 -2.27343,2.81641 -0.726,-0.787 -1.38136,-1.66061 -2.19336,-2.34961 -2.645,-2.245 -5.34669,-4.42383 -7.92969,-6.54883 11.135,-9.897 20.94517,-18.99092 18.95117,-34.79492 z m 2.53711,-21.10547 c 9.736,-0.009 16.42269,6.18513 23.17969,11.82813 1.111,0.928 0.54214,5.11343 -0.50586,7.14843 -3.311,6.436 -8.46419,12.16925 -10.61719,18.90625 -3.726,11.652 -5.73089,23.85517 -8.46289,35.82618 -0.413,1.805 -0.86441,3.60109 -1.44141,5.99609 -3.127,-3.764 -5.97104,-6.76825 -8.24804,-10.15625 -0.785,-1.169 -0.60585,-3.44808 -0.0899,-4.95508 3.88,-11.346 7.78639,-22.69025 12.02539,-33.90625 3.381,-8.944 -1.93398,-12.52044 -8.70898,-12.77344 -2.99,-0.112 -5.88434,-2.09676 -8.90234,-2.38476 -4.464,-0.427 -9.16694,-0.86416 -13.46094,0.0898 -5.988,1.33 -11.71281,3.88334 -17.50781,6.02735 -2.851,1.054 -5.69872,2.18675 -8.38672,3.59374 -5.838,3.05701 -11.93819,5.80572 -17.24219,9.63672 -4.96,3.581 -9.13531,8.28899 -13.44531,12.70899 -2.283,2.341 -4.13249,5.10798 -6.14649,7.70898 -2.786,3.596 0.29186,6.96241 1.13086,9.94141 3.194,11.344 8.31583,22.19858 10.92383,33.64258 3.647,15.997 5.65664,32.36254 8.43164,48.56054 1.313,7.665 3.03002,15.27066 4.04102,22.97266 0.378,2.877 0.16059,6.51984 -1.31641,8.83984 -8.133,12.788 -15.50855,25.97671 -21.56055,39.84571 -4.297,9.844 -7.96873,19.96386 -11.80273,30.00586 -2.507,6.564 -4.80869,13.20806 -8.17969,19.78906 0.427,-4.639 0.77397,-9.28797 1.29297,-13.91797 1.643,-14.651 10.14295,-26.57911 15.75195,-39.66211 1.602,-3.738 2.31588,-7.84517 3.67188,-11.70117 4.817,-13.698 7.46551,-27.96206 11.22851,-41.91406 2.83,-10.491 -3.47048,-17.78593 -5.39648,-26.54493 -1.144,-5.208 -3.14902,-10.23596 -4.91602,-15.29296 -2.024,-5.796 -4.20303,-11.53693 -6.33203,-17.29493 -2.195,-5.936 -4.44951,-11.84882 -6.60351,-17.79882 -2.311,-6.382 -4.12706,-12.98154 -6.91407,-19.14454 -2.882,-6.372 -1.32828,-10.94626 3.01172,-16.07226 6.85,-8.09 13.69913,-16.40978 18.95313,-25.55078 4.299,-7.482 10.73391,-9.48553 17.87891,-11.39453 8.333,-2.226 16.94968,-3.73238 24.92968,-6.85938 12.914,-5.057 26.21533,-5.73114 39.73633,-5.74414 z m -103.03906,-14.125 c 0.77807,0.037 1.73801,0.63913 3.05664,1.70313 5.96,4.808 12.04662,9.70759 20.14062,10.68359 0.878,0.106 1.68121,0.82981 1.78321,0.88281 -2.316,5.919 -4.31553,11.43078 -6.64453,16.80078 -1.063,2.446 -2.80855,4.59125 -4.18555,6.90625 -6.265,10.539 -12.67339,20.96483 -22.02539,29.17383 -1.644,1.444 -1.8142,2.92855 -1.53321,5.31055 1.031,8.751 3.16701,17.15047 6.25,25.35547 0.565,1.502 0.90327,3.18745 1.82227,4.43945 3.807,5.193 2.55808,10.25727 0.45508,15.69727 -2.045,5.292 -3.13309,10.94731 -4.99609,16.32031 -2.69601,7.782 -5.63938,15.48006 -8.60938,23.16406 -3.653,9.452 -7.41759,18.86253 -11.18359,28.26953 -1.376,3.436 -2.89275,6.81475 -4.34375,10.21875 -0.409,-0.068 -0.81661,-0.13612 -1.22461,-0.20312 0,-1.231 0.0331,-2.46436 -0.006,-3.69336 -0.21,-6.686 -0.52438,-13.36864 -0.60938,-20.05664 -0.03,-2.333 0.67357,-4.66877 0.72657,-7.00977 0.11599,-5.247 -0.18483,-10.51205 0.0762,-15.74805 0.789,-15.876 1.25579,-31.79465 2.84179,-47.59765 1.139,-11.351 3.76683,-22.55992 5.92383,-33.79492 1.711,-8.909 3.4205,-17.83829 5.6875,-26.61328 1.584,-6.132 3.975,-12.07096 6.25,-18.00196 2.49,-6.491 5.38624,-12.82726 7.86524,-19.32226 0.78075,-2.04469 1.48204,-2.93234 2.48242,-2.88477 z m 89.86914,-10.32422 c 5.1728,-0.15858 10.3015,0.71296 15.25,2.72071 0.667,0.269 1.24878,0.85746 1.92578,0.98046 9.185,1.658 15.42573,6.96899 19.80273,15.08399 1.76,3.264 4.839,5.7989 6.75,9.0039 0.953,1.595 1.36961,4.24021 0.72461,5.90821 -1.249,3.229 -3.62937,3.26715 -5.73437,0.53515 -3.737,-4.854 -8.21586,-8.883 -14.13086,-10.625 -7.651,-2.252 -15.45506,-3.62695 -23.53906,-2.12695 -3.762,0.698 -7.67717,0.55408 -11.45118,1.20508 -7.92699,1.368 -15.9601,2.47159 -23.6621,4.68359 -8.061,2.314 -15.76783,5.84866 -23.67383,8.72266 -1.216,0.442 -2.6793,0.2062 -4.0293,0.2832 0.26,-1.297 0.41578,-2.62576 0.80078,-3.88476 0.796,-2.603 1.71378,-5.16921 2.67578,-8.03321 2.747,0 5.58721,-0.14465 8.40821,0.0273 8.419,0.51 16.83206,-0.79188 23.78906,-5.04688 5.888,-3.602 10.21812,-9.72081 15.32812,-14.63281 1.709,-1.644 3.53603,-3.97864 5.58204,-4.30664 1.72874,-0.2775 3.45932,-0.44519 5.18359,-0.49805 z m 12.69531,-7.83203 c 3.547,3.522 7.07625,7.02299 9.78125,9.70898 -3.721,-1.123 -8.66758,-2.61664 -14.26758,-4.30664 1.844,-2.22 3.44433,-4.14834 4.48633,-5.40234 z m -13.40625,-4.73047 c 0.80197,0.0781 1.62961,0.76528 2.38867,2.33985 1.184,2.453 2.86257,4.66728 4.47657,7.23828 h -11.8711 c 0.674,-2.396 0.96333,-5.20518 2.23633,-7.45118 0.74925,-1.32187 1.73842,-2.22738 2.76953,-2.12695 z m 46.76367,-13.07226 c 7.44,24.483 6.10442,48.76925 5.60742,72.90625 -0.18499,8.991 -2.75523,17.93343 -4.24023,26.89843 -0.912,5.498 -1.48584,11.08271 -2.83984,16.47071 -1.485,5.898 -3.70285,11.61311 -5.58985,17.41211 -1.704,5.23 -3.17262,10.54582 -5.14062,15.67382 -2.281,5.942 -4.92502,11.74869 -7.54102,17.55469 -2.194,4.868 -4.5002,9.68808 -6.9082,14.45508 -1.104,2.185 -2.43444,4.286 -3.89844,6.25 -3.972,5.333 -8.1167,10.54114 -12.0957,15.86914 -1.384,1.853 -2.38153,3.9947 -3.76953,5.8457 -0.61,0.815 -1.8851,1.82802 -2.6211,1.66602 -0.786,-0.172 -1.55886,-1.53634 -1.88086,-2.52734 -2.45,-7.56 -5.37539,-15.02958 -7.02539,-22.76758 -2.619,-12.274 -4.58948,-24.70096 -6.39648,-37.12696 -1.275,-8.757 -2.01147,-17.6074 -2.60547,-26.4414 -0.256,-3.798 0.58699,-7.65614 0.70899,-11.49414 0.36799,-11.532 0.76665,-23.06366 0.84765,-34.59766 0.027,-3.893 2.95208,-3.49215 5.08008,-4.28516 1.893,-0.705 3.97353,-0.88724 5.89453,-1.53124 4.362,-1.463 12.72119,0.98535 13.74219,5.81835 0.269,1.276 0.95411,2.98408 0.41211,3.83008 -3.852,6.009 -6.52785,12.83014 -12.71485,17.24414 -3.022,2.155 -5.3365,5.29903 -7.8125,7.83203 14.069,10.974 24.27366,24.34733 34.09766,38.98633 1.066,-7.236 1.55628,-13.11178 2.86328,-18.80078 1.84,-8.014 1.467,-16.47364 5.75,-24.05664 2.235,-3.959 2.53822,-8.95873 4.19922,-13.30273 1.991,-5.211 4.186,-10.39553 6.875,-15.26954 2.641,-4.787 6.2435,-9.04364 8.9375,-13.80664 0.91,-1.61 1.02241,-4.34012 0.31641,-6.07812 -2.812,-6.917 -6.77704,-13.1435 -12.33204,-18.3125 -0.80199,-0.747 -0.64628,-2.62709 -0.73828,-3.99609 -0.058,-0.855 0.31705,-1.72952 0.37305,-2.60352 0.036,-0.552 -0.15506,-1.12144 -0.0391,-0.39844 -2.588,-0.627 -4.83099,-0.52484 -6.08399,-1.58984 -4.267,-3.628 -8.3152,-7.547 -12.1582,-11.625 -1.107,-1.176 -1.24322,-3.26359 -1.82422,-4.93359 0.383,-0.279 0.76644,-0.55985 1.14844,-0.83985 2.074,1.434 4.03895,3.0771 6.25195,4.24609 2.511,1.327 5.25291,2.20927 7.87891,3.32227 1.929,0.818 3.83372,1.69509 5.63672,2.49609 0.478,-6.723 4.64176,-12.61857 9.63476,-18.39257 z m -79.71875,-19.13868 c 3.526,6.676 6.57797,12.85116 10.04297,18.78516 1.147,1.964 3.03802,2.34328 4.41602,-0.51172 2.235,-4.633 4.75056,-9.13058 7.22656,-13.64258 0.275,-0.502 1.03642,-0.99111 1.60742,-1.03711 3.699,-0.298 9.02983,4.98239 9.17383,8.7754 0.153,3.982 0.73564,7.95768 0.68164,11.92968 -0.017,1.196 -1.28316,2.98122 -2.41016,3.44922 -4.112,1.702 -6.17518,3.92539 -6.74218,8.90039 -0.458,4.016 -3.3978,8.15963 -6.2168,11.39063 -3.309,3.795 -7.24736,7.54965 -11.69336,9.72265 -5.834,2.852 -12.38247,4.33796 -18.73047,6.00196 -2.384,0.625 -5.10833,-0.18561 -7.61133,0.15039 -9.451,1.269 -17.07342,-3.45655 -24.98242,-7.31055 -1.167,-0.568 -2.29398,-1.21897 -3.45898,-1.79297 -5.893,-2.902 -6.343,-4.83378 -3.375,-10.55078 3.737,-7.194 6.99754,-14.63547 10.68554,-21.85547 2.054,-4.022 4.56127,-7.81159 7.07227,-12.05859 4.043,4.698 5.89455,10.66147 12.31055,12.10547 0.494,-5.11 0.96303,-9.94197 1.45703,-15.04297 3.934,-0.703 7.98247,-0.88861 11.60547,-2.22461 3.509,-1.295 6.5844,-3.7716 8.9414,-5.1836 z m 58.93164,-15.94726 c 0.58213,-0.0824 1.20844,0.1969 2.21094,0.75391 4.281,2.37799 8.96652,4.01084 13.35352,6.21484 2.87,1.441 5.50547,3.34628 8.35547,5.11328 -2.11,5.385 -3.86463,10.90011 -6.39063,16.03711 -2.829,5.752 -6.14987,11.2962 -9.67187,16.6582 -1.597,2.43 -8.96608,0.76119 -10.95508,-2.13281 -1.345,-1.956 -2.68378,-3.91475 -4.17578,-6.09375 -6.282,3.587 -6.52939,10.99189 -10.52539,17.21289 -0.942,-2.516 -1.82977,-4.12489 -2.13477,-5.83789 -1.103,-6.213 -2.30606,-12.43017 -2.91406,-18.70117 -0.724,-7.453 1.97243,-13.09305 8.89844,-17.12305 4.55299,-2.648 8.36776,-6.7644 12.00976,-10.69141 0.82,-0.8845 1.35733,-1.32778 1.93945,-1.41015 z m -122.77734,-0.0957 c 7.791,9.93 16.69842,15.93837 27.10742,20.23437 -11.722,4.941 -23.78817,3.74889 -37.20117,3.83789 3.392,-8.091 6.45775,-15.40326 10.09375,-24.07226 z m 63.78125,-16.67579 c 2.343,2.783 4.99298,4.86132 3.83398,9.32032 -1.174,4.514 -1.30256,9.29431 -1.97656,13.94531 -0.726,5.018 -6.34187,9.82855 -11.92187,10.31055 -3.64,0.315 -8.26867,-0.61475 -10.63867,1.28125 -2.353,1.883 -2.42068,6.60903 -3.51368,10.08203 -0.394,1.255 -0.85431,2.4895 -1.57031,4.5625 -4.41,-6.259 -9.15631,-11.48183 -9.32031,-19.04883 -0.018,-0.764 -0.84085,-1.48853 -1.21485,-2.26953 -1.705,-3.56 -0.1657,-6.27439 3.6543,-7.27539 4.023,-1.055 8.20089,-2.02846 11.83789,-3.93946 7.909,-4.154 15.39208,-9.03375 20.83008,-16.96875 z m -97.29102,-6.05859 c 0.81099,-0.0409 1.77888,0.0684 3.20313,0.0684 0,14.836 -5e-5,29.18328 0.002,43.11328 -5.579,-2.163 -10.75054,-4.3642 -16.06054,-6.1582 -3.534,-1.194 -7.24711,-1.88344 -10.91211,-2.64844 -2.136,-0.447 -3.843,-0.091 -4,2.75195 -0.079,1.406 -0.78957,2.77633 -1.35157,4.61133 -1.351,-0.488 -2.58159,-0.79156 -3.68359,-1.35156 -8.562,-4.358 -14.85477,-11.49727 -21.38477,-18.19727 -2.436,-2.498 -3.34206,-6.54418 -4.66406,-9.99218 -0.157,-0.41 1.3813,-2.05532 2.2793,-2.19532 12.482,-1.939 25.02342,-3.53442 37.48242,-5.60742 6.175,-1.026 12.20531,-2.88897 18.32031,-4.29297 0.247,-0.0568 0.49921,-0.0879 0.76953,-0.10156 z m 134.42188,-5.45703 c 2.107,2.622 4.32273,5.27953 6.42773,8.01953 3.711,4.832 7.47674,9.63248 10.92774,14.64649 0.696,1.01299 0.736,3.6631 0,4.2871 -5.933,5.026 -10.94989,11.22896 -18.71289,14.00196 -1.925,0.688 -3.00561,3.74575 -4.84961,6.21875 -1.959,-0.928 -5.07605,-1.67327 -7.12305,-3.57227 -2.195,-2.034 -2.8783,-1.21619 -3.9043,0.63281 -1.539,2.771 -3.01651,5.57732 -4.60351,8.32032 -0.866,1.499 -1.90424,2.8997 -2.86524,4.3457 -0.519,-0.009 -1.03859,-0.0193 -1.55859,-0.0293 -1.5,-5.925 -3.35105,-11.79092 -4.37305,-17.79492 -0.675,-3.956 0.23852,-8.16683 -0.27148,-12.17383 -0.696,-5.478 3.53512,-7.05225 6.70312,-9.40625 7.886,-5.859 15.91513,-11.52509 24.20313,-17.49609 z M 568.79102,358.1582 c 1.11386,-0.0287 2.99703,0.99191 3.64453,1.95703 3.441,5.124 6.53759,10.47735 10.30859,16.65235 -8.82,10.715 -16.70019,23.4115 -19.49219,38.9375 -4.819,-0.465 -9.21423,-0.88877 -14.36523,-1.38477 0.346,-4.016 0.61255,-8.06756 1.06055,-12.10156 1.132,-10.2 1.9951,-20.3897 -0.83789,-30.4707 -0.76801,-2.734 0.66282,-4.63827 2.67382,-5.69727 5.406,-2.846 10.93603,-5.4895 16.58203,-7.8125 0.12188,-0.0501 0.26666,-0.076 0.42579,-0.0801 z m -95.42969,-26.69726 c 15.289,11.088 30.19517,22.2795 38.32617,40.0625 -9.67,2.109 -18.65269,4.06722 -28.42969,6.19922 0.756,-16.424 -5.54948,-31.06772 -9.89648,-46.26172 z m -102.63477,-34.875 c 2.99185,-0.025 5.99939,0.10523 8.99414,0.0996 8.488,-0.016 15.98464,3.83348 23.43164,7.02148 6.243,2.674 11.9718,6.88725 17.3418,11.15625 4.219,3.354 7.70752,7.6918 11.22852,11.8418 6.979,8.226 13.9145,16.49919 20.5625,24.99219 4.794,6.124 8.93215,12.7565 13.66015,18.9375 4.45,5.82 9.32136,11.31681 13.94336,17.00781 4.328,5.325 8.12352,11.17317 12.97852,15.95117 4.61,4.536 10.37573,7.87995 15.42773,12.00195 1.031,0.841 2.04192,3.34911 1.54492,4.16211 -4.122,6.754 -8.18712,13.6166 -13.07812,19.8086 -5.906,7.479 -12.6806,13.97267 -20.6836,19.63867 -6.758,4.784 -13.85525,7.96 -21.15624,11.375 -11.39501,5.328 -22.9604,4.61322 -34.6504,2.44922 -8.394,-1.555 -12.7304,-11.83007 -8.4414,-19.03907 1.495,-2.514 2.97684,-5.03473 4.46484,-7.55273 -5.489,3.551 -10.59031,7.40992 -12.07031,14.04492 -0.298,1.343 0.46256,3.15294 1.22656,4.46094 4.601,7.884 11.85692,10.76353 20.66992,11.89453 9.582,1.23 18.96419,0.69306 28.24219,-1.21094 4.785,-0.982 9.34275,-3.29737 13.84375,-5.35937 3.943,-1.809 7.83555,-3.84886 11.43555,-6.25586 4.099,-2.742 7.93333,-5.90355 11.73633,-9.06055 9.282,-7.709 15.229,-18.02523 21.375,-28.11523 2.321,-3.809 3.93657,-8.09197 5.51757,-12.29297 1.413,-3.754 2.92554,-4.29777 6.01954,-1.75977 0.993,0.815 2.27934,1.41196 3.52734,1.75196 3.772,1.03 7.56853,1.9872 11.39453,2.7832 7.448,1.55 14.86839,3.42412 22.40039,4.32812 9.119,1.094 18.33544,1.50299 27.52344,1.83399 3.46,0.123 6.95612,-0.80166 11.20312,-1.34766 -0.388,1.313 -0.50665,2.82308 -1.22265,3.95508 -3.922,6.204 -8.24274,12.16986 -11.92774,18.50586 -2.906,4.996 -5.14698,10.38258 -7.58398,15.64258 -3.242,6.999 -6.50725,13.99389 -9.53125,21.08789 -2.097,4.92 -3.93925,9.95934 -5.65625,15.02734 -2.228,6.57 -4.46847,13.15833 -6.23047,19.86133 -1.339,5.095 -1.95819,10.37994 -2.86719,15.58594 -2.095,11.988 -4.38101,23.94937 -6.16601,35.98437 -0.848,5.713 -0.93205,11.56733 -0.99805,17.36133 -0.142,12.169 -0.043,24.34072 -0.043,36.51172 0,9.628 -0.089,19.25781 0.041,28.88281 0.059,4.295 0.59703,8.58 0.83203,12.875 0.062,1.121 -0.19342,2.25931 -0.35742,3.94532 -6.864,-2.698 -13.30996,-5.07591 -19.62696,-7.75391 -8.608,-3.647 -17.20672,-7.3371 -25.63672,-11.37109 -5.139,-2.45901 -9.9762,-5.55741 -14.9082,-8.44141 -8.172,-4.78 -16.68847,-9.09003 -24.35547,-14.58203 -7.387,-5.293 -13.96014,-11.74656 -20.74414,-17.85156 -5.456,-4.91101 -11.01345,-9.7705 -15.93945,-15.1875 -5.436,-5.978 -10.30042,-12.49216 -15.23242,-18.91016 -4.257,-5.541 -8.34441,-11.2188 -12.31641,-16.9668 -0.951,-1.376 -0.93151,-3.38711 -1.72852,-4.91211 -4.21899,-8.075 -8.9821,-15.80886 -11.5371,-24.75586 -1.967,-6.889 -5.81818,-13.22893 -7.95118,-20.08593 -3.401,-10.937 -6.21042,-22.06846 -8.98242,-33.18946 -1.199,-4.808 -1.73656,-9.78908 -2.47656,-14.70508 -1.462,-9.724 -3.0067,-19.44031 -4.2207,-29.19531 -0.697,-5.589 -0.78118,-11.25386 -1.20118,-16.88086 -0.307,-4.1 -0.71386,-8.19286 -1.75586,-12.25586 10e-6,10.296 -0.11579,20.59177 0.0332,30.88477 0.161,11.043 0.33861,22.09619 0.97461,33.11719 0.285,4.94 1.71861,9.8127 2.59961,14.7207 0.622,3.467 1.00936,6.98525 1.81836,10.40625 2.372,10.037 4.45604,20.17372 7.49804,30.01172 2.966,9.594 6.78243,18.94509 10.60743,28.24609 1.84899,4.498 4.5172,8.6666 6.9082,12.9336 3.025,5.396 5.9953,10.83236 9.2793,16.06835 1.93899,3.09301 4.43035,5.84247 6.69335,8.73047 1.9,2.425 3.70049,4.9458 5.77149,7.2168 4.319,4.738 9.4907,8.87258 12.9707,14.14258 2.805,4.246 6.45361,7.20069 10.09961,10.30469 5.771,4.914 11.76581,9.57175 17.75781,14.21875 4.708,3.651 9.38472,7.38851 14.38672,10.60351 5.006,3.215 10.48064,5.69641 15.55664,8.81641 1.029,0.633 2.03119,3.02986 1.61719,4.00586 -2.093,4.933 -4.57517,9.70803 -7.07617,14.45703 -4.816,9.14 -9.65472,18.27417 -14.63672,27.32617 -4.84,8.795 -9.64948,17.62088 -14.89648,26.17188 -3.994,6.509 -8.36866,12.83607 -13.09766,18.83007 -4.718,5.983 -10.08378,11.45268 -15.17578,17.13868 -4.02,4.488 -7.97986,9.03443 -12.13086,13.39843 -1.255,1.319 -3.07028,2.09744 -4.61328,3.14844 -5.605,3.816 -10.91072,8.20759 -16.88672,11.30859 -6.269,3.253 -13.24997,5.10124 -19.79297,7.86524 -14.253,6.018 -29.42872,6.83108 -44.51172,8.08008 -10.061,0.832 -20.17742,1.93248 -30.23242,1.64648 -10.436,-0.297 -20.81614,-2.25237 -31.24414,-3.23437 -6.362,-0.599 -12.78535,-0.55233 -19.15235,-1.11133 -12.182,-1.071 -24.53807,-1.41456 -36.45507,-3.85156 -10.489,-2.144 -20.97407,-3.17874 -31.53907,-4.30274 -9.635,-1.025 -19.18811,-2.82194 -28.7871,-4.21094 -5.10101,-0.739 -10.25113,-1.17306 -15.32813,-2.03906 -6.877,-1.171 -13.70691,-2.62687 -21.00391,-4.04687 2.962,-2.609 5.97994,-4.82811 8.46094,-7.53711 7.49,-8.175 16.49242,-14.92702 22.35742,-24.66602 2.414,-4.008 6.15533,-7.20917 9.23633,-10.82617 0.558,-0.656 0.91633,-1.51798 1.23633,-2.33399 3.16,-8.056 3.48258,-8.24548 11.89258,-7.27148 7.918,0.916 15.81867,2.16966 23.76367,2.59766 11.922,0.642 23.89855,1.27903 35.81055,0.83203 12.688,-0.476 25.33328,-2.17569 37.98828,-3.42969 4.828,-0.478 9.71978,-0.81734 14.42578,-1.90234 7.647,-1.762 15.16328,-4.09297 22.73828,-6.16797 3.938,-1.078 8.00769,-1.80114 11.80469,-3.24414 9.408,-3.577 18.71386,-7.42688 28.00586,-11.29688 1.434,-0.598 2.58183,-1.88506 3.42383,-3.16406 -5.76501,1.991 -11.52483,4.0018 -17.29883,5.9668 -6.894,2.345 -13.73761,4.86943 -20.72461,6.89843 -4.76,1.381 -9.70747,2.15386 -14.60547,3.00586 -7.523,1.31 -15.06719,2.50535 -22.61719,3.65235 -4.51,0.685 -9.05526,1.14206 -13.57226,1.78906 -5.861,0.839 -11.7085,1.76544 -17.5625,2.64844 -0.295,0.045 -0.59844,0.0312 -0.89844,0.0312 -15.42,0.002 -30.84036,0.002 -46.94336,0.002 7.266,-18.715 11.71995,-37.50048 12.50195,-57.27148 68.422,12.772 133.1338,6.72451 191.5918,-34.02149 -4.446,1.945 -8.91294,3.84871 -13.33594,5.8457 -10.189,4.60001 -20.27912,9.36216 -31.32812,11.78516 -4.176,0.914 -7.94814,3.63324 -12.11914,4.61524 -8.68,2.044 -17.49649,3.51843 -26.27149,5.14843 -7.919,1.473 -15.85711,2.83896 -23.78711,4.25196 -0.437,0.077 -0.87154,0.20442 -1.31055,0.23242 -14.23099,0.911 -28.46331,1.81794 -42.69531,2.71094 -0.895,0.056 -2.05362,0.33925 -2.64062,-0.0937 -1.005,-0.739 -2.47422,-2.10694 -2.32422,-2.96094 1.164,-6.609 2.79772,-13.13528 4.01172,-19.73828 0.587,-3.193 0.421,-6.51814 0.875,-9.74414 1.555,-11.055 3.21295,-22.09672 4.87695,-33.13672 0.547,-3.626 1.20352,-7.23571 1.85352,-10.84571 2.364,-13.137 4.80156,-26.26215 7.10156,-39.41015 1.616,-9.239 2.81767,-18.555 4.63867,-27.75 1.754,-8.86 4.20299,-17.58092 6.08399,-26.41992 1.18799,-5.582 1.6399,-11.32553 2.8789,-16.89454 1.607,-7.22499 3.66392,-14.35162 5.54492,-21.51562 0.147,-0.559 0.50753,-1.06109 0.64453,-1.62109 1.508,-6.165 3.03261,-12.32777 4.47461,-18.50977 1.855,-7.955 3.37835,-15.99809 5.52735,-23.87109 2.172,-7.954 4.97687,-15.73424 7.42187,-23.61524 1.805,-5.817 3.28277,-11.74109 5.25977,-17.49609 2.436,-7.094 4.98108,-14.17274 7.95508,-21.05274 3.439,-7.958 6.50832,-16.30128 11.36132,-23.36328 5.398,-7.855 10.90422,-16.05995 19.69922,-21.00195 4.177,-2.347 7.95778,-5.41092 12.17578,-7.66992 3.27,-1.752 7.03811,-2.55163 10.41211,-4.14063 4.76938,-2.24687 9.71281,-2.71816 14.69922,-2.75976 z m -12.76367,-23.17578 c 0.43219,-0.0139 0.86359,-0.007 1.29297,0.0215 4.947,0.33 9.81756,1.75845 14.72656,2.68945 3.019,0.572 6.09341,0.91797 9.06641,1.66797 7.502,1.893 15.04219,3.21403 21.49219,8.45703 4.935,4.011 11.61817,5.83885 16.70117,9.71485 5.322,4.059 9.67792,9.38826 14.41992,14.19726 1.615,1.638 3.39076,3.20452 4.63477,5.10352 5.722,8.728 11.60929,17.37669 16.77929,26.42969 3.06,5.36 4.93333,11.40654 7.23633,17.18554 0.273,0.686 -0.11388,1.63561 -0.29688,3.47461 -2.588,-4.027 -4.59009,-7.29503 -6.74609,-10.45703 -3.246,-4.763 -6.39094,-9.61686 -9.96094,-14.13086 -4.655,-5.886 -9.57056,-11.57944 -14.60156,-17.14844 -2.266,-2.509 -4.88745,-4.81317 -7.68945,-6.70117 -7.307,-4.922 -14.70796,-9.72248 -22.25196,-14.27148 -7.821,-4.717 -16.24259,-7.07402 -25.55859,-7.66602 -10.233,-0.651 -19.88453,0.65031 -29.14453,4.57032 -4.997,2.115 -10.18992,4.56214 -14.16992,8.11914 -8.556,7.647 -16.88013,15.68653 -24.32813,24.39453 -4.567,5.339 -7.01347,12.43242 -10.98047,18.35742 -7.553,11.285 -11.44531,24.13736 -16.32031,36.56836 -1.105,2.817 -1.11833,6.04547 -1.98633,8.98047 -0.304,1.032 -1.66497,1.75128 -2.54296,2.61328 -0.22001,-1.099 -0.60382,-2.19483 -0.63282,-3.29883 -0.285,-10.887 -0.34636,-21.78216 -0.81836,-32.66016 -0.268,-6.185 -0.73315,-12.42823 -1.91015,-18.49023 -1.575,-8.119 -3.99378,-16.072 -5.92578,-24.125 -1.96,-8.172 -6.22802,-15.15417 -10.91602,-21.95117 -0.205,-0.298 -0.0254,-0.86099 -0.0254,-1.58399 7.966,-0.443 15.69597,-1.26912 23.41797,-1.20312 10.619,0.089 21.03348,-2.27552 30.39648,-6.10352 7.663,-3.132 15.53463,-5.66444 23.26563,-8.52344 4.447,-1.644 9.45594,-1.76517 14.21094,-2.57617 3.05375,-0.51975 6.14068,-1.55688 9.16601,-1.65429 z m -19.04101,-32.16407 c 4.35099,0.43 8.67235,1.34771 12.94335,2.34571 8.912,2.083 17.9641,3.79192 26.6211,6.66992 9.643,3.206 19.05997,7.22114 28.29297,11.49414 6.433,2.977 12.87012,6.35901 18.45312,10.66602 9.407,7.259 20.37816,12.78654 27.03516,23.31054 5.449,8.613 10.27265,17.46475 13.09765,27.34375 2.269,7.932 5.08558,15.71006 7.26758,23.66406 1.505,5.488 2.36271,11.155 3.47071,16.75 0.737,3.726 1.46393,7.45518 2.08593,11.20118 0.376,2.263 0.54078,4.56075 0.80078,6.84375 -0.334,0.124 -0.667,0.24804 -1,0.37304 -1.005,-1.422 -1.84801,-2.99337 -3.04101,-4.23437 -4.801,-4.993 -6.24572,-11.32695 -8.01172,-17.75195 -2.173,-7.91001 -5.20213,-15.60672 -8.20312,-23.26172 -3.37501,-8.608 -7.96743,-16.56774 -14.10743,-23.55274 -3.943,-4.485 -7.585,-9.31815 -12,-13.28515 -5.284,-4.748 -11.73697,-8.23955 -16.79297,-13.18555 -6.299,-6.162 -14.44645,-8.07175 -21.93945,-11.59375 -12.324,-5.794 -25.44161,-7.58769 -38.72461,-6.92969 -8.711,0.431 -17.35617,2.71102 -25.95117,4.54102 -1.877,0.399 -3.29467,2.62447 -5.13867,3.60547 -1.731,0.921 -3.74666,1.30811 -6.34766,1.03711 2.06,-3.37601 4.24344,-6.68644 6.14844,-10.14844 1.958,-3.556 3.77501,-7.20397 5.41602,-10.91797 1.86,-4.212 3.23478,-8.65295 5.30078,-12.75195 0.611,-1.212 2.92321,-2.37143 4.32422,-2.23243 z m 26.66796,-1.94336 c -12.189,-2.44 -23.67137,-6.57378 -35.60937,-5.42578 -0.63,4.333 -0.33064,8.66143 -1.93164,12.10743 -4.836,10.40499 -10.30091,20.52681 -15.75391,30.63281 -1.938,3.593 -5.03639,5.95184 -9.52539,5.71484 -1.011,-0.054 -2.06959,0.15588 -3.05859,0.42188 -7.246,1.945 -14.25641,4.82695 -22.06641,4.12695 -4.761,-0.427 -9.59767,0.0537 -14.38867,-0.1543 -1.547,-0.067 -3.02289,-1.16064 -4.58789,-1.55664 -4.476,-1.132 -8.98061,-2.14698 -13.47461,-3.20898 -0.182,0.466 -0.36388,0.93048 -0.54688,1.39648 2.131,2.897 4.93358,5.51714 6.26758,8.74414 4.518,10.923 8.75742,21.97735 12.60742,33.15235 1.841,5.345 2.84147,11.02967 3.73047,16.63867 1.244,7.854 2.28522,15.75864 2.94922,23.68164 1.039,12.412 1.85792,24.84901 2.41992,37.29101 0.22,4.868 -0.26481,9.80921 -0.88281,14.65821 -0.471,3.689 -1.55173,7.31501 -2.55273,10.91601 -1.743,6.272 -3.87425,12.44272 -5.40625,18.76172 -2.133,8.802 -3.78097,17.72074 -5.79297,26.55274 -1.882,8.262 -4.24653,16.42251 -5.89453,24.72851 -2.141,10.791 -3.6106,21.71253 -5.6836,32.51953 -2.451,12.774 -5.56629,25.42628 -7.77929,38.23828 -1.976,11.439 -3.1241,23.02197 -4.6211,34.54297 -0.4,3.076 -0.64309,6.17528 -1.12109,9.23828 -1.378,8.839 -2.93214,17.65096 -4.24414,26.50196 -1.374,9.272 -2.55019,18.57453 -3.86719,28.26953 -12.387,-2.141 -24.31377,-4.20459 -35.75977,-6.18359 10e-6,9.942 0.10227,18.85948 -0.0527,27.77148 -0.059,3.38 -0.33897,6.84637 -1.16797,10.10937 -1.756,6.914 -4.47537,13.62238 -5.73437,20.60938 -0.683,3.795 -2.17408,4.55127 -5.20508,4.07227 -7.962,-1.255 -15.88924,-2.73863 -23.86524,-3.89063 -1.089,-0.157 -2.86414,0.73064 -3.49414,1.68164 -4.691,7.091 -8.46629,14.91756 -13.90429,21.35156 -6.542,7.74 -14.38902,14.38786 -21.79102,21.38086 -1.993,1.881 -5.15509,2.84739 -6.49609,5.02539 -2.708,4.398 -7.25641,5.88255 -11.066409,8.56055 -4.19,2.945 -8.24414,6.08358 -12.86914,9.51758 3.974,0.796 7.122968,1.48778 10.292968,2.05078 13.163001,2.341 26.581871,2.54678 39.671871,6.05078 9.443,2.528 19.51118,2.79403 29.32618,3.83203 10.148,1.074 20.57868,0.77288 30.42968,3.04688 12.774,2.948 25.7856,1.67997 38.6836,4.54297 14.612,3.244 30.13234,2.70948 45.27734,3.14648 15.735,0.452 31.50028,0.37947 47.23828,-0.0195 7.781,-0.198 15.55125,-1.49052 23.28125,-2.60352 3.303,-0.475 6.48538,-1.77911 9.73438,-2.66211 4.636,-1.261 9.34115,-2.29576 13.91015,-3.75976 5.857,-1.878 11.15724,-5.23736 17.86524,-4.44336 10.875,1.289 21.833,2.68976 32.75,2.63476 28.981,-0.148 57.9575,-1.08484 86.9375,-1.58984 3.276,-0.057 5.50228,-0.25837 5.23828,-4.48437 -0.289,-4.65 2.24427,-5.72333 6.82226,-5.61133 15.13901,0.372 30.29341,0.13339 45.44141,0.15039 1.552,0.002 3.10475,0.1467 4.59375,0.2207 v 50.75195 h 31.03711 c 0.91,-16.239 -1.60011,-32.41679 3.08789,-47.84179 h 38.78125 c -1.598,-3.026 -3.08192,-5.95427 -4.66992,-8.82227 -3.805,-6.867 -8.05467,-13.51851 -11.38867,-20.60351 -4.184,-8.893 -7.33241,-18.27849 -11.56641,-27.14649 -1.521,-3.183 -1.68856,-5.7433 -0.60156,-8.77929 2.432,-6.788 4.84465,-13.58263 7.22265,-20.39063 2.183,-6.25 4.12668,-12.59267 6.51368,-18.76367 2.078,-5.37 4.58451,-10.57531 6.97851,-15.82031 2.728,-5.977 5.66177,-11.86549 8.25977,-17.89649 1.329,-3.085 3.23875,-6.54822 2.84375,-9.57422 -0.415,-3.187 -3.43128,-5.97365 -4.98828,-9.09765 -0.924,-1.854 -1.22469,-4.02093 -1.80469,-6.04493 0.551,-0.313 1.1033,-0.6245 1.6543,-0.9375 8.968,8.176 17.93609,16.35013 27.37109,24.95313 5.078,-6.681 10.34961,-13.48834 15.47461,-20.40234 4.178,-5.638 8.78391,-11.0745 12.12891,-17.1875 5.434,-9.931 11.27054,-19.68515 14.81054,-30.61915 3.286,-10.148 7.98024,-19.85621 10.99024,-30.07421 2.759,-9.367 4.49722,-19.09349 5.94922,-28.77149 1.639,-10.933 3.3512,-21.98514 3.4082,-32.99414 0.07,-13.308 -1.30036,-26.64878 -2.56836,-39.92578 -0.706,-7.411 -1.92311,-14.8732 -3.91211,-22.0332 -1.913,-6.882 -1.81358,-13.28558 0.60742,-19.89258 1.252,-3.419 2.03139,-7.00944 3.02539,-10.52344 -2.765,-0.555 -4.65529,-0.54569 -6.15429,-1.30469 -6.556,-3.319 -13.56079,-5.20479 -19.67579,-10.09179 -9.837,-7.859 -17.33929,-17.33046 -23.90429,-27.68946 -1.646,-2.596 -2.51967,-2.31507 -4.26367,-1.08007 -9.043,6.403 -18.05163,12.855 -27.01563,19.25 -2.614,-2.432 -5.52989,-5.14719 -8.58789,-7.99219 -11.758,12.526 -25.83817,20.362 -41.32617,25.25 0.574,3.454 1.04133,6.26026 1.73633,10.44726 -3.324,-1.538 -6.00427,-2.28379 -8.07227,-3.84179 -3.839,-2.891 -7.21637,-6.38386 -10.98437,-9.38086 -2.857,-2.273 -2.12616,-4.34344 -0.28516,-6.64844 2.537,-3.177 5.06384,-6.36378 7.58984,-9.55078 1.479,-1.864 0.83257,-2.84825 -0.77343,-4.65625 -4.219,-4.745 -7.86588,-10.01299 -11.54688,-15.20899 -0.555,-0.782 -1.3262,-4.66876 -1.3262,-4.75976 -9.45543,-6.07632 -54.61196,20.63462 -57.44589,17.31168 C 513.8739,365.6981 499.55255,348.441 489.55171,338.36497 469.37107,318.03256 472.34946,319.6984 456.79535,293.97126 437.21443,261.58361 389.62726,246.48318 365.58984,239.30273 Z" /></g></g></svg>